<?xml version="1.0" encoding="UTF-8" standalone="no"?>
<!-- Created with Inkscape (http://www.inkscape.org/) -->

<svg
   xmlns:dc="http://purl.org/dc/elements/1.1/"
   xmlns:cc="http://creativecommons.org/ns#"
   xmlns:rdf="http://www.w3.org/1999/02/22-rdf-syntax-ns#"
   xmlns:svg="http://www.w3.org/2000/svg"
   xmlns="http://www.w3.org/2000/svg"
   xmlns:sodipodi="http://sodipodi.sourceforge.net/DTD/sodipodi-0.dtd"
   xmlns:inkscape="http://www.inkscape.org/namespaces/inkscape"
   width="64.119133"
   height="84.751198"
   id="svg2"
   version="1.1"
   inkscape:version="0.48.4 r9939"
   sodipodi:docname="princeton-logo.svg"
   inkscape:export-filename="/home/pivarski/talks/2017-10-25-aps-nuclear/princeton-logo.png"
   inkscape:export-xdpi="212.38638"
   inkscape:export-ydpi="212.38638">
  <defs
     id="defs4">
    <clipPath
       id="clipPath3045"
       clipPathUnits="userSpaceOnUse">
      <path
         id="path3047"
         d="m 30,29.038 232,0 0,85.537 -232,0 0,-85.537 z"
         inkscape:connector-curvature="0" />
    </clipPath>
  </defs>
  <sodipodi:namedview
     id="base"
     pagecolor="#070954"
     bordercolor="#666666"
     borderopacity="1.0"
     inkscape:pageopacity="0"
     inkscape:pageshadow="2"
     inkscape:zoom="2"
     inkscape:cx="107.36576"
     inkscape:cy="48.264057"
     inkscape:document-units="px"
     inkscape:current-layer="g3529"
     showgrid="false"
     fit-margin-top="5"
     fit-margin-left="5"
     fit-margin-right="5"
     fit-margin-bottom="10"
     inkscape:window-width="1080"
     inkscape:window-height="1027"
     inkscape:window-x="834"
     inkscape:window-y="0"
     inkscape:window-maximized="0" />
  <metadata
     id="metadata7">
    <rdf:RDF>
      <cc:Work
         rdf:about="">
        <dc:format>image/svg+xml</dc:format>
        <dc:type
           rdf:resource="http://purl.org/dc/dcmitype/StillImage" />
        <dc:title></dc:title>
      </cc:Work>
    </rdf:RDF>
  </metadata>
  <g
     inkscape:label="Calque 1"
     inkscape:groupmode="layer"
     id="layer1"
     transform="translate(-306.68124,-448.06817)">
    <g
       transform="matrix(1.25,0,0,-1.25,0,1052.5)"
       inkscape:label="ink_ext_XXXXXX"
       id="g2993">
      <g
         transform="scale(0.1,0.1)"
         id="g2995" />
    </g>
    <g
       transform="matrix(1.25,0,0,-1.25,0,1052.5)"
       inkscape:label="ink_ext_XXXXXX"
       id="g3007">
      <g
         transform="scale(0.1,0.1)"
         id="g3009" />
    </g>
    <g
       transform="matrix(1.25,0,0,-1.25,0,1052.5)"
       inkscape:label="ink_ext_XXXXXX"
       id="g3021">
      <g
         transform="scale(0.1,0.1)"
         id="g3023" />
    </g>
    <g
       id="g3529"
       transform="matrix(0.99288268,0,0,0.99288268,126.48577,-839.05902)">
      <g
         transform="matrix(1.25,0,0,-1.25,213.42796,1370.6865)"
         id="g3049">
        <path
           id="path3051"
           style="fill:#ffffff;fill-opacity:1;fill-rule:nonzero;stroke:none"
           d="M 0,0 C -3.695,2.763 -7.014,5.991 -9.865,9.595 L -10.116,9.913 0.263,20.013 10.675,9.889 10.422,9.57 C 7.567,5.977 4.242,2.757 0.539,0 L 0.269,-0.201 0,0 z"
           inkscape:connector-curvature="0" />
      </g>
      <g
         transform="matrix(1.25,0,0,-1.25,213.75671,1344.8858)"
         id="g3053">
        <path
           id="path3055"
           style="fill:#ffffff;fill-opacity:1;fill-rule:nonzero;stroke:none"
           d="m 0,0 -0.628,-0.61 -9.774,-9.511 -0.582,-0.566 0.504,-0.638 c 2.874,-3.635 6.222,-6.89 9.948,-9.676 l 0.538,-0.403 0.539,0.401 c 3.735,2.782 7.087,6.03 9.966,9.651 l 0.507,0.639 -0.584,0.568 L 0.628,-0.61 0,0 z m 0,-1.256 9.806,-9.535 c -2.845,-3.58 -6.145,-6.767 -9.799,-9.489 -3.693,2.761 -6.974,5.965 -9.781,9.514 L 0,-1.256"
           inkscape:connector-curvature="0" />
      </g>
      <g
         transform="matrix(1.25,0,0,-1.25,213.76996,1333.3738)"
         id="g3057">
        <path
           id="path3059"
           style="fill:#ffffff;fill-opacity:1;fill-rule:nonzero;stroke:none"
           d="m 0,0 -14.454,-13.884 -0.285,0.508 c -2.591,4.611 -4.449,9.54 -5.521,14.647 l -0.114,0.542 40.758,0 L 20.13,0.567 C 19.025,-4.35 17.222,-9.051 14.767,-13.416 L 14.482,-13.923 0,0 z"
           inkscape:connector-curvature="0" />
      </g>
      <g
         transform="matrix(1.25,0,0,-1.25,239.94208,1330.5446)"
         id="g3061">
        <path
           id="path3063"
           style="fill:#ffffff;fill-opacity:1;fill-rule:nonzero;stroke:none"
           d="m 0,0 -1.108,0 -39.649,0 -1.109,0 0.228,-1.085 c 1.082,-5.152 2.955,-10.122 5.569,-14.776 l 0.569,-1.013 0.839,0.806 13.723,13.18 13.751,-13.219 0.839,-0.805 0.569,1.013 c 2.477,4.401 4.296,9.144 5.409,14.098 l 0.075,0.377 0.068,0.34 L 0,0 z m -1.108,-0.9 c -0.049,-0.236 -0.091,-0.468 -0.141,-0.704 -1.115,-4.964 -2.926,-9.609 -5.314,-13.854 l -14.375,13.819 -14.346,-13.78 c -2.54,4.519 -4.4,9.408 -5.473,14.519 l 39.649,0"
           inkscape:connector-curvature="0" />
      </g>
      <g
         transform="matrix(1.25,0,0,-1.25,213.75896,1347.2401)"
         id="g3065">
        <path
           id="path3067"
           style="fill:#ffffff;fill-opacity:1;fill-rule:nonzero;stroke:none"
           d="m 0,0 -9.818,-9.553 -0.31,0.391 c -1.72,2.175 -3.272,4.489 -4.611,6.879 l -0.17,0.305 L 0,12.342 14.937,-2.019 14.767,-2.321 C 13.418,-4.724 11.868,-7.034 10.158,-9.187 L 9.849,-9.577 0,0 z"
           inkscape:connector-curvature="0" />
      </g>
      <g
         transform="matrix(1.25,0,0,-1.25,213.75896,1331.0326)"
         id="g3069">
        <path
           id="path3071"
           style="fill:#ffffff;fill-opacity:1;fill-rule:nonzero;stroke:none"
           d="m 0,0 -0.623,-0.599 -14.347,-13.781 -0.502,-0.482 0.34,-0.607 c 1.351,-2.409 2.916,-4.744 4.652,-6.939 l 0.619,-0.782 0.715,0.696 9.146,8.9 9.178,-8.925 0.714,-0.694 0.619,0.781 c 1.724,2.171 3.288,4.502 4.649,6.923 l 0.341,0.609 -0.502,0.481 L 0.624,-0.6 0,0 z m 0,-1.249 14.375,-13.819 c -1.347,-2.398 -2.877,-4.674 -4.569,-6.805 L 0,-12.338 -9.774,-21.849 c -1.706,2.156 -3.236,4.436 -4.573,6.82 L 0,-1.249"
           inkscape:connector-curvature="0" />
      </g>
      <g
         transform="matrix(1.25,0,0,-1.25,213.75896,1347.2401)"
         id="g3073">
        <path
           id="path3075"
           style="fill:#ffffff;fill-opacity:1;fill-rule:nonzero;stroke:none"
           d="m 0,0 -9.818,-9.553 -0.31,0.391 c -1.72,2.175 -3.272,4.489 -4.611,6.879 l -0.17,0.305 L 0,12.342 14.937,-2.019 14.767,-2.321 C 13.418,-4.724 11.868,-7.034 10.158,-9.187 L 9.849,-9.577 0,0 z"
           inkscape:connector-curvature="0" />
      </g>
      <g
         transform="matrix(1.25,0,0,-1.25,213.75896,1331.0326)"
         id="g3077">
        <path
           id="path3079"
           style="fill:#ffffff;fill-opacity:1;fill-rule:nonzero;stroke:none"
           d="m 0,0 -0.623,-0.599 -14.347,-13.781 -0.502,-0.482 0.34,-0.607 c 1.351,-2.409 2.916,-4.744 4.652,-6.939 l 0.619,-0.782 0.715,0.696 9.146,8.9 9.178,-8.925 0.714,-0.694 0.619,0.781 c 1.724,2.171 3.288,4.502 4.649,6.923 l 0.341,0.609 -0.502,0.481 L 0.624,-0.6 0,0 z m 0,-1.249 14.375,-13.819 c -1.347,-2.398 -2.877,-4.674 -4.569,-6.805 L 0,-12.338 -9.774,-21.849 c -1.706,2.156 -3.236,4.436 -4.573,6.82 L 0,-1.249"
           inkscape:connector-curvature="0" />
      </g>
      <g
         transform="matrix(1.25,0,0,-1.25,188.52646,1332.2472)"
         id="g3081">
        <path
           id="path3083"
           style="fill:#ffffff;fill-opacity:1;fill-rule:nonzero;stroke:none"
           d="m 0,0 -0.075,0.358 c -1.021,4.879 -1.319,9.87 -0.883,14.834 l 0.048,0.552 0.531,-0.161 c 1.68,-0.51 3.429,-0.769 5.198,-0.769 6.141,0 11.888,3.204 14.999,8.361 l 0.385,0.64 0.386,-0.64 c 3.106,-5.157 8.852,-8.361 14.994,-8.361 1.774,0 3.524,0.26 5.205,0.772 l 0.532,0.162 0.047,-0.554 C 41.793,10.269 41.486,5.278 40.455,0.358 L 40.381,0 0,0 z"
           inkscape:connector-curvature="0" />
      </g>
      <g
         transform="matrix(1.25,0,0,-1.25,213.77983,1301.3896)"
         id="g3085">
        <path
           id="path3087"
           style="fill:#ffffff;fill-opacity:1;fill-rule:nonzero;stroke:none"
           d="M 0,0 -0.771,-1.278 C -3.8,-6.301 -9.4,-9.422 -15.384,-9.422 c -1.723,0 -3.428,0.253 -5.067,0.75 l -1.062,0.321 -0.096,-1.104 c -0.44,-5.008 -0.14,-10.043 0.891,-14.966 l 0.15,-0.715 0.731,0 39.649,0 0.732,0 0.149,0.715 c 1.04,4.964 1.349,10 0.92,14.968 l -0.096,1.108 -1.064,-0.324 c -1.637,-0.499 -3.344,-0.753 -5.072,-0.753 -5.986,0 -11.584,3.12 -14.61,8.143 L 0,0 z m 0,-1.744 c 3.092,-5.131 8.821,-8.578 15.381,-8.578 1.86,0 3.65,0.278 5.335,0.791 0.415,-4.808 0.134,-9.749 -0.904,-14.705 l -39.649,0 c -0.995,4.752 -1.315,9.693 -0.876,14.702 1.682,-0.51 3.472,-0.788 5.329,-0.788 6.559,0 12.289,3.447 15.384,8.578"
           inkscape:connector-curvature="0" />
      </g>
      <g
         transform="matrix(1.25,0,0,-1.25,201.53908,1358.3433)"
         id="g3089">
        <path
           id="path3091"
           style="fill:#f46f1b;fill-opacity:1;fill-rule:nonzero;stroke:none"
           d="m 0,0 c 2.807,-3.549 6.088,-6.753 9.781,-9.514 3.654,2.722 6.954,5.909 9.799,9.489 L 9.774,9.51 0,0 z"
           inkscape:connector-curvature="0" />
      </g>
      <g
         transform="matrix(1.25,0,0,-1.25,195.83683,1349.8186)"
         id="g3093">
        <path
           id="path3095"
           style="fill:#f46f1b;fill-opacity:1;fill-rule:nonzero;stroke:none"
           d="M 0,0 14.347,13.78 28.721,-0.039 c 2.388,4.245 4.2,8.89 5.315,13.854 0.049,0.236 0.091,0.468 0.14,0.704 l -39.649,0 C -4.4,9.408 -2.539,4.519 0,0"
           inkscape:connector-curvature="0" />
      </g>
      <g
         transform="matrix(1.25,0,0,-1.25,195.82583,1349.8186)"
         id="g3097">
        <path
           id="path3099"
           style="fill:#f46f1b;fill-opacity:1;fill-rule:nonzero;stroke:none"
           d="m 0,0 c 1.337,-2.385 2.866,-4.664 4.572,-6.82 l 9.775,9.511 9.805,-9.535 c 1.692,2.131 3.222,4.407 4.569,6.805 L 14.347,13.78 0,0 z"
           inkscape:connector-curvature="0" />
      </g>
      <g
         transform="matrix(1.25,0,0,-1.25,213.75896,1345.6706)"
         id="g3101">
        <path
           id="path3103"
           style="fill:#231f20;fill-opacity:1;fill-rule:nonzero;stroke:none"
           d="m 0,0 -9.728,-9.466 c -1.499,1.93 -2.86,3.967 -4.055,6.065 L 0,9.837 13.811,-3.44 C 12.608,-5.547 11.248,-7.579 9.761,-9.491 L 0,0 z"
           inkscape:connector-curvature="0" />
      </g>
      <g
         transform="matrix(1.25,0,0,-1.25,213.75896,1332.5934)"
         id="g3105">
        <path
           id="path3107"
           style="fill:#231f20;fill-opacity:1;fill-rule:nonzero;stroke:none"
           d="m 0,0 -14.347,-13.78 c 1.337,-2.385 2.867,-4.664 4.573,-6.82 L 0,-11.09 9.806,-20.625 c 1.692,2.132 3.222,4.407 4.569,6.806 L 0,0 z m 0,-1.249 13.245,-12.733 c -1.064,-1.835 -2.248,-3.611 -3.532,-5.296 l -9.085,8.834 -0.628,0.61 -0.628,-0.61 -9.052,-8.809 c -1.293,1.701 -2.479,3.48 -3.537,5.309 L 0,-1.249"
           inkscape:connector-curvature="0" />
      </g>
      <g
         transform="matrix(1.25,0,0,-1.25,239.67483,1313.3027)"
         id="g3109">
        <path
           id="path3111"
           style="fill:#231f20;fill-opacity:1;fill-rule:nonzero;stroke:none"
           d="m 0,0 c -1.685,-0.514 -3.475,-0.791 -5.335,-0.791 -6.56,0 -12.289,3.446 -15.381,8.578 -3.095,-5.132 -8.825,-8.578 -15.384,-8.578 -1.857,0 -3.647,0.277 -5.329,0.787 -0.439,-5.008 -0.119,-9.95 0.876,-14.701 l 39.649,0 C 0.134,-9.75 0.415,-4.808 0,0"
           inkscape:connector-curvature="0" />
      </g>
      <g
         transform="matrix(1.25,0,0,-1.25,225.98646,1320.8833)"
         id="g3113">
        <path
           id="path3115"
           style="fill:#ffffff;fill-opacity:1;fill-rule:nonzero;stroke:none"
           d="m 0,0 0,1.685 -1.03,0 0,1.189 -1.08,0.302 -0.078,0 0,1.009 c 0,0 -0.372,-0.446 -2.082,-0.446 -1.618,0 -2.567,0.524 -3.855,0.524 -1.238,0 -1.617,-0.707 -1.617,-0.707 l 0,-0.408 -0.043,0 0,0.408 c 0,0 -0.387,0.707 -1.618,0.707 -1.287,0 -2.237,-0.528 -3.854,-0.528 -1.71,0 -2.005,0.447 -2.005,0.447 l 0,-1.062 -0.071,0 -1.171,-0.246 0,-1.189 -1.034,0 0,-1.685 1.034,0 0,-2.726 -1.034,0 0,-1.688 1.034,0 0,-2.096 c 0,0 1.734,-0.271 3.338,-0.271 1.896,0 2.99,0.274 4.221,0.299 l 0,-0.531 c 0,0 0.496,-0.247 1.157,-0.247 0.668,0 1.199,0.247 1.199,0.247 l 0,0.531 c 1.228,-0.025 2.322,-0.299 4.228,-0.299 1.597,0 3.331,0.271 3.331,0.271 l 0,2.096 1.03,0 0,1.688 -1.03,0 L -1.03,0 0,0 z"
           inkscape:connector-curvature="0" />
      </g>
      <g
         transform="matrix(1.25,0,0,-1.25,224.44571,1328.8849)"
         id="g3117">
        <path
           id="path3119"
           style="fill:#231f20;fill-opacity:1;fill-rule:nonzero;stroke:none"
           d="m 0,0 c -0.441,-0.063 -1.846,-0.246 -3.153,-0.246 -1.874,0 -4.185,0.292 -4.208,0.295 l -0.202,0.028 0,-0.615 c -0.178,-0.067 -0.566,-0.187 -1.02,-0.187 -0.445,0 -0.809,0.12 -0.978,0.183 l 0,0.619 -0.202,-0.028 c -0.023,-0.003 -2.335,-0.295 -4.198,-0.295 -1.311,0 -2.717,0.183 -3.158,0.246 l 0,9.084 c 0.165,0.032 0.656,0.137 0.895,0.186 l 0,-8.228 c 0.088,-0.19 0.464,-0.626 2.184,-0.626 l 2.177,0.285 1.664,0.239 c 1.111,0 1.46,-0.591 1.475,-0.615 l 0.052,0.028 0.256,0 0.049,-0.028 c 0.015,0.024 0.357,0.615 1.46,0.615 l 1.663,-0.236 2.195,-0.288 c 1.743,0 2.179,0.457 2.222,0.51 l 0.034,8.387 C -0.565,9.249 -0.146,9.133 0,9.091 L 0,0 z M -15.865,10.195 C -15.577,10.051 -15.06,9.9 -14.04,9.9 l 2.193,0.288 1.662,0.239 c 1.092,0 1.44,-0.583 1.46,-0.615 l 0,-8.977 c -0.266,0.221 -0.712,0.464 -1.474,0.464 l -1.741,-0.246 -2.1,-0.278 c -1.537,0 -1.857,0.369 -1.86,0.372 0,0 0.031,8.436 0.035,9.048 m 7.498,-0.383 c 0.015,0.025 0.357,0.615 1.46,0.615 l 1.663,-0.235 2.195,-0.288 c 1.063,0 1.604,0.165 1.904,0.309 l 0,-9.157 C -1.168,1.102 -1.599,0.775 -3.049,0.775 l -2.117,0.281 -1.741,0.243 c -0.754,0 -1.196,-0.243 -1.46,-0.461 l 0,8.974 z m 7.576,-0.123 0.005,1.291 -0.313,-0.331 c -0.004,-0.003 -0.388,-0.387 -1.95,-0.387 l -2.117,0.282 -1.741,0.242 c -0.955,0 -1.431,-0.39 -1.639,-0.626 -0.209,0.236 -0.689,0.626 -1.639,0.626 l -1.739,-0.246 -2.116,-0.281 c -1.537,0 -1.857,0.369 -1.86,0.373 l -0.319,0.39 -0.005,-0.496 0,-0.886 -1.254,-0.264 0,-9.689 0.152,-0.021 c 0.017,-0.004 1.765,-0.274 3.365,-0.274 1.578,0 3.451,0.207 4.042,0.277 l 0,-0.439 0.098,-0.053 c 0.023,-0.011 0.542,-0.264 1.238,-0.264 0.7,0 1.252,0.253 1.275,0.264 l 0.104,0.049 0,0.443 c 0.591,-0.07 2.464,-0.277 4.051,-0.277 1.594,0 3.344,0.27 3.361,0.274 l 0.152,0.021 0,9.678 -1.151,0.324 z"
           inkscape:connector-curvature="0" />
      </g>
      <g
         transform="matrix(1.25,0,0,-1.25,207.80171,1318.1566)"
         id="g3121">
        <path
           id="path3123"
           style="fill:#231f20;fill-opacity:1;fill-rule:nonzero;stroke:none"
           d="m 0,0 c -0.141,-0.011 -0.232,-0.084 -0.274,-0.179 l -0.577,-1.284 c 0,0 -0.028,-0.021 -0.046,-0.021 -0.017,0 -0.039,0.021 -0.053,0.06 -0.014,0.045 -0.084,0.225 -0.235,0.576 l -0.187,0.419 c -0.066,0.155 -0.119,0.257 -0.137,0.288 -0.067,0.116 -0.151,0.127 -0.242,0.141 -0.011,0.014 -0.011,0.028 -0.011,0.039 0,0.014 0,0.021 0.007,0.038 l 0.095,0 c 0.109,0 0.2,-0.007 0.281,-0.007 0.095,0 0.253,0.011 0.359,0.011 l 0.063,0 c 0.011,-0.004 0.014,-0.025 0.014,-0.035 0,-0.007 0,-0.032 -0.007,-0.042 C -1.02,-0.004 -1.178,0 -1.178,-0.098 c 0,-0.022 0.003,-0.06 0.014,-0.085 l 0.38,-0.9 0.316,0.745 c 0.039,0.085 0.042,0.159 0.042,0.197 0,0.085 -0.059,0.123 -0.218,0.141 -0.003,0.011 -0.01,0.025 -0.01,0.035 0,0.014 0.007,0.035 0.01,0.046 l 0.046,0 c 0.071,0 0.141,-0.011 0.299,-0.011 0.028,0 0.137,0.007 0.19,0.007 L 0,0.077 C 0.007,0.063 0.014,0.056 0.014,0.042 0.014,0.032 0.007,0.011 0,0"
           inkscape:connector-curvature="0" />
      </g>
      <g
         transform="matrix(1.25,0,0,-1.25,209.81096,1319.9547)"
         id="g3125">
        <path
           id="path3127"
           style="fill:#231f20;fill-opacity:1;fill-rule:nonzero;stroke:none"
           d="m 0,0 c -0.461,0 -0.71,0.01 -0.774,0.01 -0.049,0 -0.161,0.004 -0.218,0.004 -0.063,0 -0.211,-0.011 -0.373,-0.011 l -0.091,0.004 c -0.007,0.014 -0.007,0.021 -0.007,0.035 0,0.011 0,0.028 0.003,0.042 0.123,0.011 0.212,0.032 0.233,0.05 0.024,0.031 0.042,0.095 0.049,0.232 0,0.07 0.003,0.147 0.003,0.228 0,0.116 -0.003,0.257 -0.003,0.426 l 0,0.239 c -0.004,0.165 -0.085,0.165 -0.257,0.186 -0.003,0.015 -0.007,0.029 -0.007,0.039 0,0.011 0.004,0.035 0.014,0.039 l 0.084,0 c 0.057,0 0.208,-0.004 0.496,-0.004 0.264,0 0.521,-0.003 0.577,-0.003 0.035,0 0.137,-0.004 0.159,-0.004 0.035,0 0.049,-0.003 0.049,-0.035 L -0.042,1.133 C -0.063,1.122 -0.067,1.118 -0.084,1.118 c -0.014,0 -0.025,0 -0.036,0.004 -0.101,0.172 -0.151,0.207 -0.228,0.264 -0.028,0.021 -0.07,0.035 -0.134,0.038 -0.021,0 -0.074,0.004 -0.204,0.004 -0.105,0 -0.158,-0.004 -0.172,-0.004 -0.018,0 -0.014,0 -0.021,-0.059 C -0.883,1.329 -0.886,1.259 -0.886,1.059 l 0,-0.197 0.052,0 c 0.067,0 0.134,0.007 0.173,0.017 0.06,0.018 0.123,0.06 0.155,0.109 0.014,0.018 0.028,0.102 0.035,0.127 0.01,0.007 0.028,0.01 0.049,0.01 0.014,0 0.028,-0.003 0.039,-0.01 -0.004,-0.063 -0.014,-0.179 -0.014,-0.327 0,-0.074 0.007,-0.236 0.007,-0.303 -0.014,-0.01 -0.021,-0.01 -0.043,-0.01 -0.01,0 -0.031,0 -0.042,0.003 -0.014,0.13 -0.035,0.218 -0.144,0.264 -0.06,0.025 -0.109,0.032 -0.169,0.032 -0.032,0 -0.07,-0.004 -0.102,-0.007 l 0,-0.398 c 0,-0.091 0.007,-0.147 0.021,-0.179 0.011,-0.025 0.046,-0.077 0.092,-0.084 0.021,-0.004 0.06,-0.011 0.14,-0.011 l 0.219,0 c 0.056,0 0.137,0.007 0.165,0.025 0.053,0.035 0.193,0.186 0.243,0.327 0.021,0.007 0.031,0.007 0.045,0.007 0.014,0 0.028,-0.004 0.046,-0.011 l 0,-0.401 C 0.081,0.003 0.056,0 0,0"
           inkscape:connector-curvature="0" />
      </g>
      <g
         transform="matrix(1.25,0,0,-1.25,212.09708,1318.6533)"
         id="g3129">
        <path
           id="path3131"
           style="fill:#231f20;fill-opacity:1;fill-rule:nonzero;stroke:none"
           d="M 0,0 C -0.01,0 -0.025,0.004 -0.042,0.004 -0.077,0.099 -0.12,0.183 -0.155,0.229 -0.218,0.306 -0.278,0.359 -0.436,0.376 -0.471,0.38 -0.556,0.38 -0.584,0.38 l -0.003,-0.672 c 0,-0.105 0,-0.229 0.003,-0.461 0.004,-0.175 0.081,-0.175 0.264,-0.2 0.011,-0.018 0.014,-0.032 0.014,-0.042 0,-0.014 -0.003,-0.025 -0.01,-0.039 l -0.067,0 c -0.106,0 -0.317,0.007 -0.384,0.007 -0.045,0 -0.277,-0.011 -0.387,-0.011 -0.01,0.018 -0.014,0.018 -0.014,0.043 0,0.01 0.004,0.024 0.011,0.038 0.243,0.018 0.267,0.064 0.274,0.141 0.007,0.049 0.007,0.25 0.007,0.454 l 0,0.555 c 0,0.071 -0.003,0.141 -0.014,0.187 -0.046,0 -0.193,0 -0.236,-0.018 C -1.249,0.317 -1.337,0.214 -1.431,0.028 -1.442,0.025 -1.46,0.025 -1.47,0.025 c -0.014,0 -0.028,0.003 -0.035,0.014 l 0,0.39 c 0,0.035 0.003,0.046 0.045,0.046 0.036,0 0.092,-0.004 0.166,-0.004 0.052,0 0.274,-0.003 0.552,-0.003 0.366,0 0.636,0.01 0.707,0.01 0.035,0 0.06,0 0.074,-0.014 0.003,-0.007 0,-0.035 0,-0.056 l 0,-0.39 C 0.032,0.004 0.014,0 0,0"
           inkscape:connector-curvature="0" />
      </g>
      <g
         transform="matrix(1.25,0,0,-1.25,207.70946,1321.6297)"
         id="g3133">
        <path
           id="path3135"
           style="fill:#231f20;fill-opacity:1;fill-rule:nonzero;stroke:none"
           d="M 0,0 C -0.014,0 -0.025,0.004 -0.046,0.004 -0.077,0.098 -0.12,0.183 -0.158,0.229 -0.218,0.306 -0.281,0.359 -0.44,0.376 -0.475,0.38 -0.559,0.38 -0.587,0.38 l -0.004,-0.672 c 0,-0.106 0,-0.228 0.004,-0.461 0.003,-0.176 0.084,-0.176 0.267,-0.2 0.01,-0.018 0.01,-0.032 0.01,-0.042 0,-0.014 0,-0.025 -0.007,-0.039 l -0.066,0 c -0.109,0 -0.32,0.007 -0.384,0.007 -0.046,0 -0.278,-0.011 -0.39,-0.011 -0.007,0.018 -0.011,0.018 -0.011,0.043 0,0.01 0.004,0.024 0.007,0.038 0.243,0.018 0.268,0.064 0.278,0.141 0.004,0.049 0.004,0.25 0.004,0.454 l 0,0.556 c 0,0.07 0,0.14 -0.011,0.186 -0.046,0 -0.197,0 -0.239,-0.018 C -1.252,0.317 -1.337,0.215 -1.431,0.028 -1.446,0.025 -1.463,0.025 -1.474,0.025 c -0.014,0 -0.024,0.003 -0.035,0.014 l 0,0.39 c 0,0.035 0.007,0.046 0.046,0.046 0.039,0 0.091,-0.004 0.165,-0.004 0.057,0 0.278,-0.003 0.556,-0.003 0.362,0 0.636,0.01 0.703,0.01 0.039,0 0.064,0 0.074,-0.014 C 0.042,0.457 0.039,0.429 0.039,0.408 l 0,-0.39 C 0.028,0.004 0.014,0 0,0"
           inkscape:connector-curvature="0" />
      </g>
      <g
         transform="matrix(1.25,0,0,-1.25,209.88133,1322.9311)"
         id="g3137">
        <path
           id="path3139"
           style="fill:#231f20;fill-opacity:1;fill-rule:nonzero;stroke:none"
           d="m 0,0 c -0.457,0 -0.711,0.011 -0.77,0.011 -0.05,0 -0.162,0.003 -0.222,0.003 -0.06,0 -0.211,-0.01 -0.369,-0.01 l -0.092,0.003 c -0.007,0.014 -0.01,0.021 -0.01,0.035 0,0.011 0,0.028 0.007,0.042 0.123,0.011 0.211,0.032 0.228,0.05 0.028,0.031 0.043,0.095 0.05,0.232 0.003,0.07 0.007,0.148 0.007,0.228 0,0.116 -0.004,0.257 -0.004,0.426 0,0.12 -0.003,0.19 -0.003,0.239 -0.004,0.165 -0.081,0.165 -0.254,0.187 -0.007,0.014 -0.01,0.028 -0.01,0.038 0,0.011 0.007,0.036 0.017,0.039 l 0.081,0 c 0.06,0 0.208,-0.003 0.496,-0.003 0.268,0 0.521,-0.004 0.581,-0.004 0.031,0 0.137,-0.004 0.154,-0.004 0.039,0 0.053,-0.003 0.053,-0.035 L -0.042,1.132 C -0.06,1.122 -0.067,1.118 -0.084,1.118 c -0.011,0 -0.022,0 -0.036,0.004 -0.098,0.172 -0.147,0.208 -0.228,0.264 -0.028,0.021 -0.067,0.035 -0.131,0.038 -0.021,0 -0.073,0.004 -0.207,0.004 -0.102,0 -0.158,-0.004 -0.169,-0.004 -0.021,0 -0.017,0 -0.024,-0.059 0,-0.035 -0.004,-0.106 -0.004,-0.306 l 0,-0.197 0.049,0 c 0.071,0 0.137,0.007 0.173,0.017 0.063,0.018 0.123,0.06 0.158,0.109 0.01,0.018 0.028,0.102 0.032,0.127 0.014,0.007 0.031,0.011 0.049,0.011 0.018,0 0.032,-0.004 0.042,-0.011 -0.003,-0.063 -0.017,-0.179 -0.017,-0.327 0,-0.074 0.01,-0.236 0.01,-0.303 -0.017,-0.01 -0.021,-0.01 -0.042,-0.01 -0.014,0 -0.032,0 -0.046,0.003 -0.014,0.131 -0.032,0.218 -0.144,0.264 -0.06,0.025 -0.109,0.032 -0.165,0.032 -0.032,0 -0.071,-0.004 -0.102,-0.007 l 0,-0.398 c 0,-0.091 0.007,-0.147 0.017,-0.179 0.014,-0.025 0.049,-0.077 0.092,-0.084 0.021,-0.004 0.063,-0.011 0.14,-0.011 l 0.222,0 c 0.056,0 0.134,0.007 0.162,0.025 0.056,0.035 0.197,0.186 0.246,0.327 0.017,0.007 0.032,0.007 0.046,0.007 0.01,0 0.028,-0.004 0.042,-0.011 l 0,-0.401 C 0.081,0.004 0.056,0 0,0"
           inkscape:connector-curvature="0" />
      </g>
      <g
         transform="matrix(1.25,0,0,-1.25,211.21771,1322.9749)"
         id="g3141">
        <path
           id="path3143"
           style="fill:#231f20;fill-opacity:1;fill-rule:nonzero;stroke:none"
           d="m 0,0 c -0.127,0 -0.267,0.049 -0.352,0.091 -0.014,0.008 -0.042,0.015 -0.056,0.015 -0.017,0 -0.063,-0.025 -0.113,-0.06 -0.035,0 -0.077,0.017 -0.087,0.045 0,0.032 0.028,0.127 0.028,0.187 0,0.035 -0.011,0.207 -0.014,0.246 0.014,0.021 0.042,0.032 0.066,0.032 l 0.025,0 c 0.032,-0.064 0.095,-0.229 0.141,-0.296 0.095,-0.109 0.235,-0.158 0.337,-0.158 0.113,0 0.197,0.021 0.247,0.074 0.07,0.067 0.084,0.109 0.084,0.183 0,0.056 -0.01,0.102 -0.042,0.137 C 0.225,0.545 0.193,0.566 0.106,0.608 0.039,0.64 -0.197,0.7 -0.281,0.746 -0.387,0.795 -0.44,0.837 -0.492,0.893 -0.556,0.974 -0.58,1.083 -0.58,1.171 c 0,0.243 0.193,0.426 0.467,0.426 0.103,0 0.243,-0.011 0.363,-0.106 0.024,0.028 0.056,0.06 0.088,0.088 0.045,0 0.077,-0.024 0.081,-0.042 C 0.415,1.502 0.394,1.407 0.394,1.329 0.394,1.291 0.419,1.129 0.419,1.104 0.401,1.097 0.383,1.083 0.359,1.083 0.352,1.083 0.341,1.087 0.331,1.09 0.288,1.164 0.25,1.287 0.204,1.354 c -0.07,0.095 -0.169,0.13 -0.302,0.13 -0.152,0 -0.275,-0.095 -0.275,-0.225 0,-0.126 0.102,-0.186 0.187,-0.225 C -0.123,1.009 -0.046,0.981 0.042,0.953 0.155,0.914 0.239,0.886 0.285,0.862 0.461,0.77 0.535,0.64 0.535,0.461 0.535,0.179 0.281,0 0,0"
           inkscape:connector-curvature="0" />
      </g>
      <g
         transform="matrix(1.25,0,0,-1.25,208.47446,1325.9118)"
         id="g3145">
        <path
           id="path3147"
           style="fill:#231f20;fill-opacity:1;fill-rule:nonzero;stroke:none"
           d="m 0,0 c -0.461,0 -0.711,0.01 -0.774,0.01 -0.049,0 -0.162,0.004 -0.218,0.004 -0.063,0 -0.211,-0.011 -0.373,-0.011 l -0.091,0.004 c -0.007,0.014 -0.007,0.021 -0.007,0.035 0,0.011 0,0.028 0.003,0.042 0.123,0.011 0.211,0.032 0.232,0.05 0.025,0.031 0.043,0.095 0.05,0.232 0,0.07 0.003,0.147 0.003,0.228 0,0.116 -0.003,0.257 -0.003,0.426 l 0,0.239 c -0.004,0.165 -0.085,0.165 -0.257,0.186 -0.004,0.015 -0.007,0.029 -0.007,0.039 0,0.011 0.003,0.035 0.014,0.039 l 0.084,0 c 0.057,0 0.208,-0.004 0.496,-0.004 0.264,0 0.521,-0.003 0.577,-0.003 0.035,0 0.137,-0.004 0.158,-0.004 0.036,0 0.05,-0.003 0.05,-0.035 l 0.021,-0.345 c -0.021,-0.01 -0.025,-0.014 -0.042,-0.014 -0.014,0 -0.025,0 -0.036,0.004 -0.102,0.172 -0.151,0.207 -0.228,0.264 -0.028,0.021 -0.071,0.035 -0.134,0.038 -0.021,0 -0.074,0.004 -0.204,0.004 -0.105,0 -0.158,-0.004 -0.172,-0.004 -0.018,0 -0.014,0 -0.021,-0.059 C -0.883,1.329 -0.886,1.259 -0.886,1.059 l 0,-0.197 0.052,0 c 0.067,0 0.134,0.007 0.173,0.017 0.06,0.018 0.123,0.06 0.154,0.109 0.014,0.018 0.029,0.102 0.036,0.127 0.01,0.007 0.028,0.01 0.049,0.01 0.014,0 0.028,-0.003 0.039,-0.01 -0.004,-0.063 -0.014,-0.179 -0.014,-0.327 0,-0.074 0.007,-0.236 0.007,-0.303 -0.014,-0.01 -0.022,-0.01 -0.043,-0.01 -0.01,0 -0.031,0 -0.042,0.003 -0.014,0.13 -0.035,0.218 -0.144,0.264 -0.06,0.025 -0.109,0.032 -0.169,0.032 -0.032,0 -0.07,-0.004 -0.102,-0.007 l 0,-0.398 c 0,-0.091 0.007,-0.148 0.021,-0.179 0.011,-0.025 0.046,-0.077 0.092,-0.084 0.021,-0.004 0.059,-0.011 0.14,-0.011 l 0.218,0 c 0.057,0 0.138,0.007 0.166,0.025 0.052,0.035 0.193,0.186 0.242,0.327 0.021,0.007 0.032,0.007 0.046,0.007 0.014,0 0.028,-0.004 0.046,-0.011 l 0,-0.401 C 0.081,0.003 0.056,0 0,0"
           inkscape:connector-curvature="0" />
      </g>
      <g
         transform="matrix(1.25,0,0,-1.25,211.24408,1324.105)"
         id="g3149">
        <path
           id="path3151"
           style="fill:#231f20;fill-opacity:1;fill-rule:nonzero;stroke:none"
           d="m 0,0 c -0.155,-0.007 -0.288,-0.092 -0.288,-0.338 l -0.004,-0.781 c 0,-0.031 0.014,-0.253 0.014,-0.337 -0.024,-0.014 -0.049,-0.025 -0.063,-0.025 -0.007,0 -0.021,0.011 -0.039,0.025 l -1.073,1.154 0.011,-0.236 0.004,-0.426 c 0,-0.031 0.007,-0.112 0.014,-0.172 0.007,-0.095 0.035,-0.127 0.077,-0.162 0.053,-0.046 0.141,-0.06 0.204,-0.067 0.007,-0.01 0.01,-0.024 0.01,-0.035 0,-0.003 -0.003,-0.024 -0.014,-0.038 l -0.116,0 c -0.098,0 -0.175,0.003 -0.277,0.003 -0.067,0 -0.162,-0.007 -0.229,-0.007 l -0.049,0 c -0.004,0.011 -0.004,0.028 -0.004,0.035 0,0.007 0,0.021 0.007,0.039 0.078,0.007 0.197,0.042 0.243,0.105 0.017,0.039 0.025,0.109 0.025,0.183 l 0,0.545 c 0,0.088 -0.004,0.134 -0.008,0.218 -0.003,0.071 -0.017,0.124 -0.052,0.166 -0.004,0.01 -0.039,0.045 -0.074,0.081 -0.035,0.028 -0.12,0.052 -0.173,0.074 -0.007,0.014 -0.01,0.031 -0.01,0.035 0,0.01 0.003,0.028 0.01,0.038 l 0.039,0 c 0.032,0 0.197,-0.007 0.324,-0.007 l 0.074,0 c 0.014,-0.007 0.038,-0.021 0.045,-0.031 l 0.795,-0.869 c 0.06,-0.067 0.137,-0.155 0.18,-0.211 l 0,0.626 c 0,0.084 -0.004,0.144 -0.007,0.176 -0.007,0.063 -0.022,0.119 -0.046,0.162 -0.025,0.038 -0.173,0.059 -0.25,0.077 -0.007,0.014 -0.007,0.032 -0.007,0.046 0,0.007 0,0.017 0.004,0.031 l 0.045,0 c 0.074,0 0.194,-0.01 0.268,-0.01 0.183,0 0.239,0.007 0.33,0.007 l 0.06,0 C 0.007,0.06 0.007,0.046 0.007,0.035 0.007,0.028 0.007,0.011 0,0"
           inkscape:connector-curvature="0" />
      </g>
      <g
         transform="matrix(1.25,0,0,-1.25,217.50908,1318.1478)"
         id="g3153">
        <path
           id="path3155"
           style="fill:#231f20;fill-opacity:1;fill-rule:nonzero;stroke:none"
           d="m 0,0 c -0.151,-0.007 -0.288,-0.091 -0.288,-0.338 l 0,-0.78 c 0,-0.032 0.01,-0.254 0.01,-0.338 -0.021,-0.014 -0.049,-0.025 -0.06,-0.025 -0.01,0 -0.021,0.011 -0.042,0.025 l -1.073,1.153 0.015,-0.235 0.003,-0.426 c 0,-0.031 0.007,-0.112 0.011,-0.172 0.01,-0.095 0.038,-0.127 0.077,-0.162 0.056,-0.046 0.144,-0.06 0.204,-0.067 0.007,-0.01 0.01,-0.024 0.01,-0.035 0,-0.003 -0.003,-0.024 -0.01,-0.038 l -0.12,0 c -0.095,0 -0.172,0.003 -0.277,0.003 -0.067,0 -0.159,-0.007 -0.226,-0.007 l -0.049,0 c -0.003,0.011 -0.007,0.028 -0.007,0.035 0,0.007 0,0.021 0.011,0.039 0.074,0.007 0.193,0.042 0.239,0.105 0.021,0.039 0.025,0.109 0.025,0.183 l 0,0.545 c 0,0.088 0,0.134 -0.004,0.218 -0.003,0.071 -0.021,0.124 -0.053,0.166 -0.007,0.01 -0.039,0.045 -0.077,0.081 -0.032,0.028 -0.12,0.052 -0.173,0.074 -0.003,0.014 -0.007,0.031 -0.007,0.035 0,0.01 0.004,0.028 0.007,0.038 l 0.043,0 c 0.028,0 0.193,-0.007 0.32,-0.007 l 0.074,0 c 0.014,-0.007 0.038,-0.021 0.049,-0.031 l 0.795,-0.869 c 0.06,-0.067 0.137,-0.155 0.179,-0.211 l 0,0.626 c 0,0.084 -0.007,0.144 -0.01,0.176 -0.004,0.063 -0.022,0.119 -0.046,0.162 -0.025,0.038 -0.173,0.059 -0.246,0.077 -0.007,0.014 -0.011,0.032 -0.011,0.046 0,0.007 0,0.017 0.007,0.031 l 0.046,0 c 0.074,0 0.193,-0.01 0.267,-0.01 0.179,0 0.239,0.007 0.331,0.007 L 0,0.074 C 0.007,0.06 0.011,0.046 0.011,0.035 0.011,0.028 0.007,0.011 0,0"
           inkscape:connector-curvature="0" />
      </g>
      <g
         transform="matrix(1.25,0,0,-1.25,219.17546,1318.3281)"
         id="g3157">
        <path
           id="path3159"
           style="fill:#231f20;fill-opacity:1;fill-rule:nonzero;stroke:none"
           d="M 0,0 C -0.074,0.098 -0.165,0.158 -0.302,0.158 -0.429,0.158 -0.51,0.102 -0.584,0 c -0.091,-0.116 -0.141,-0.302 -0.141,-0.538 0,-0.232 0.05,-0.415 0.134,-0.531 0.077,-0.113 0.165,-0.169 0.299,-0.169 0.162,0 0.257,0.077 0.331,0.208 0.067,0.116 0.098,0.277 0.098,0.488 C 0.137,-0.292 0.088,-0.116 0,0 M 0.246,-1.111 C 0.099,-1.255 -0.106,-1.34 -0.296,-1.34 c -0.179,0 -0.386,0.077 -0.531,0.218 -0.158,0.151 -0.228,0.355 -0.228,0.58 0,0.215 0.07,0.419 0.228,0.574 0.169,0.162 0.352,0.228 0.535,0.228 0.134,0 0.257,-0.035 0.401,-0.112 0.236,-0.151 0.373,-0.401 0.373,-0.675 0,-0.215 -0.085,-0.43 -0.236,-0.584"
           inkscape:connector-curvature="0" />
      </g>
      <g
         transform="matrix(1.25,0,0,-1.25,222.18246,1318.1566)"
         id="g3161">
        <path
           id="path3163"
           style="fill:#231f20;fill-opacity:1;fill-rule:nonzero;stroke:none"
           d="m 0,0 c -0.137,-0.011 -0.228,-0.084 -0.271,-0.179 l -0.577,-1.284 c 0,0 -0.028,-0.021 -0.045,-0.021 -0.018,0 -0.042,0.021 -0.053,0.06 -0.014,0.045 -0.085,0.225 -0.239,0.576 l -0.183,0.419 c -0.067,0.155 -0.12,0.257 -0.137,0.288 -0.071,0.116 -0.152,0.127 -0.243,0.141 -0.014,0.014 -0.014,0.028 -0.014,0.039 0,0.014 0,0.021 0.01,0.038 l 0.095,0 c 0.106,0 0.197,-0.007 0.278,-0.007 0.095,0 0.254,0.011 0.363,0.011 l 0.059,0 c 0.015,-0.004 0.018,-0.025 0.018,-0.035 0,-0.007 0,-0.032 -0.007,-0.042 C -1.02,-0.004 -1.175,0 -1.175,-0.098 c 0,-0.022 0,-0.06 0.014,-0.085 l 0.377,-0.9 0.32,0.745 c 0.035,0.085 0.039,0.159 0.039,0.197 0,0.085 -0.06,0.123 -0.219,0.141 -0.003,0.011 -0.007,0.025 -0.007,0.035 0,0.014 0.004,0.035 0.007,0.046 l 0.046,0 c 0.07,0 0.141,-0.011 0.302,-0.011 0.025,0 0.138,0.007 0.19,0.007 l 0.11,0 C 0.011,0.063 0.014,0.056 0.014,0.042 0.014,0.032 0.011,0.011 0,0"
           inkscape:connector-curvature="0" />
      </g>
      <g
         transform="matrix(1.25,0,0,-1.25,216.88908,1321.6297)"
         id="g3165">
        <path
           id="path3167"
           style="fill:#231f20;fill-opacity:1;fill-rule:nonzero;stroke:none"
           d="M 0,0 C -0.014,0 -0.024,0.004 -0.046,0.004 -0.077,0.098 -0.12,0.183 -0.158,0.229 -0.218,0.306 -0.281,0.359 -0.44,0.376 -0.475,0.38 -0.559,0.38 -0.587,0.38 l -0.004,-0.672 c 0,-0.106 0,-0.228 0.004,-0.461 0.003,-0.176 0.084,-0.176 0.267,-0.2 0.011,-0.018 0.011,-0.032 0.011,-0.042 0,-0.014 0,-0.025 -0.007,-0.039 l -0.067,0 c -0.109,0 -0.32,0.007 -0.384,0.007 -0.045,0 -0.277,-0.011 -0.39,-0.011 -0.007,0.018 -0.011,0.018 -0.011,0.043 0,0.01 0.004,0.024 0.007,0.038 0.243,0.018 0.268,0.064 0.278,0.141 0.004,0.049 0.004,0.25 0.004,0.454 l 0,0.556 c 0,0.07 0,0.14 -0.011,0.186 -0.046,0 -0.197,0 -0.239,-0.018 C -1.252,0.317 -1.336,0.215 -1.431,0.028 -1.445,0.025 -1.463,0.025 -1.474,0.025 c -0.014,0 -0.024,0.003 -0.035,0.014 l 0,0.39 c 0,0.035 0.007,0.046 0.046,0.046 0.039,0 0.091,-0.004 0.165,-0.004 0.057,0 0.278,-0.003 0.556,-0.003 0.362,0 0.636,0.01 0.703,0.01 0.039,0 0.064,0 0.074,-0.014 C 0.042,0.457 0.039,0.429 0.039,0.408 l 0,-0.39 C 0.028,0.004 0.014,0 0,0"
           inkscape:connector-curvature="0" />
      </g>
      <g
         transform="matrix(1.25,0,0,-1.25,217.96646,1321.4232)"
         id="g3169">
        <path
           id="path3171"
           style="fill:#231f20;fill-opacity:1;fill-rule:nonzero;stroke:none"
           d="M 0,0 -0.004,0 C -0.035,-0.06 -0.091,-0.19 -0.113,-0.246 -0.194,-0.443 -0.222,-0.51 -0.236,-0.538 l 0.454,0 C 0.183,-0.447 0.067,-0.169 0,0 m 0.96,-1.206 -0.119,0 c -0.078,0 -0.166,0.01 -0.257,0.01 -0.144,0 -0.327,-0.01 -0.398,-0.01 -0.007,0.007 -0.01,0.021 -0.01,0.038 0,0.011 0.003,0.025 0.007,0.036 0.148,0.007 0.207,0.031 0.207,0.091 0,0.025 0,0.074 -0.045,0.197 -0.046,0.113 -0.071,0.162 -0.081,0.19 -0.007,0.01 -0.011,0.017 -0.042,0.017 l -0.479,0 c -0.032,-0.038 -0.07,-0.144 -0.112,-0.291 -0.011,-0.039 -0.011,-0.074 -0.011,-0.088 0,-0.05 0.046,-0.106 0.215,-0.109 0.01,-0.018 0.01,-0.032 0.01,-0.043 0,-0.01 0,-0.021 -0.003,-0.035 l -0.043,0 c -0.112,0 -0.144,0.007 -0.263,0.007 -0.078,0 -0.264,-0.007 -0.327,-0.007 -0.004,0.014 -0.007,0.018 -0.007,0.032 0,0.01 0,0.021 0.007,0.039 0.091,0.021 0.175,0.045 0.218,0.112 0.024,0.035 0.105,0.176 0.193,0.394 0.084,0.204 0.186,0.461 0.232,0.566 0.064,0.134 0.085,0.176 0.106,0.222 0.031,0.067 0.067,0.133 0.081,0.158 0.014,0.018 0.045,0.028 0.059,0.028 0.025,0 0.057,-0.014 0.067,-0.031 C 0.179,0.289 0.197,0.26 0.2,0.243 0.288,0.032 0.359,-0.155 0.468,-0.415 0.524,-0.545 0.552,-0.63 0.612,-0.767 0.654,-0.851 0.679,-0.918 0.721,-0.995 0.777,-1.111 0.869,-1.111 0.96,-1.136 0.964,-1.147 0.974,-1.157 0.974,-1.171 0.974,-1.185 0.967,-1.192 0.96,-1.206"
           inkscape:connector-curvature="0" />
      </g>
      <g
         transform="matrix(1.25,0,0,-1.25,222.10333,1322.9311)"
         id="g3173">
        <path
           id="path3175"
           style="fill:#231f20;fill-opacity:1;fill-rule:nonzero;stroke:none"
           d="m 0,0 -0.615,0.007 -0.169,0 c -0.007,0.014 -0.011,0.032 -0.011,0.039 0,0.021 0.004,0.024 0.014,0.038 0.032,0.004 0.113,0 0.151,0.014 0.064,0.029 0.089,0.092 0.089,0.183 l 0,0.887 0,0.207 -0.004,0 -0.324,-0.71 C -0.904,0.587 -0.946,0.503 -0.981,0.419 -1.055,0.253 -1.094,0.141 -1.115,0.074 -1.125,0.046 -1.15,0.046 -1.164,0.046 c -0.021,0 -0.035,0.007 -0.046,0.042 -0.042,0.091 -0.07,0.151 -0.084,0.19 l -0.507,1.115 -0.01,0 0,-0.285 0.01,-0.711 c 0,-0.218 0.113,-0.32 0.285,-0.32 0.007,-0.01 0.014,-0.031 0.014,-0.035 0,-0.01 -0.003,-0.024 -0.01,-0.038 C -1.523,0.004 -1.558,0 -1.59,0 -1.611,0 -1.723,0.011 -1.885,0.011 -1.931,0.011 -2.026,0.007 -2.1,0.007 l -0.102,0 c -0.003,0.014 -0.007,0.025 -0.007,0.039 0,0.003 0.004,0.021 0.007,0.031 0.043,0.011 0.19,0.046 0.222,0.078 0.032,0.031 0.06,0.095 0.06,0.246 l 0,0.359 0,0.422 c -0.004,0.123 -0.018,0.172 -0.078,0.214 -0.024,0.018 -0.119,0.028 -0.2,0.039 -0.007,0.014 -0.011,0.032 -0.011,0.042 0,0.011 0.004,0.025 0.011,0.043 0.06,0 0.165,-0.008 0.271,-0.008 l 0.369,0 c 0.014,-0.01 0.021,-0.017 0.032,-0.038 l 0.453,-1.027 0.081,0.204 c 0.071,0.165 0.173,0.415 0.317,0.682 0.031,0.06 0.07,0.137 0.091,0.176 L -0.007,1.52 C 0,1.505 0.007,1.495 0.007,1.481 0.007,1.467 0.004,1.456 -0.003,1.442 -0.067,1.431 -0.176,1.431 -0.229,1.344 -0.246,1.315 -0.257,1.287 -0.257,1.164 l 0,-0.735 c 0,-0.281 0.071,-0.309 0.102,-0.331 C -0.137,0.088 -0.049,0.077 0,0.077 0.007,0.063 0.011,0.053 0.011,0.039 0.011,0.018 0.004,0.014 0,0"
           inkscape:connector-curvature="0" />
      </g>
      <g
         transform="matrix(1.25,0,0,-1.25,216.84533,1324.6106)"
         id="g3177">
        <path
           id="path3179"
           style="fill:#231f20;fill-opacity:1;fill-rule:nonzero;stroke:none"
           d="M 0,0 C -0.014,0 -0.025,0.004 -0.046,0.004 -0.077,0.098 -0.12,0.183 -0.158,0.229 -0.218,0.306 -0.281,0.359 -0.44,0.376 -0.475,0.38 -0.559,0.38 -0.587,0.38 l -0.004,-0.672 c 0,-0.105 0,-0.228 0.004,-0.461 0.003,-0.175 0.084,-0.175 0.267,-0.2 0.01,-0.018 0.01,-0.032 0.01,-0.042 0,-0.014 0,-0.025 -0.007,-0.039 l -0.066,0 c -0.109,0 -0.32,0.007 -0.384,0.007 -0.046,0 -0.278,-0.011 -0.39,-0.011 -0.007,0.018 -0.011,0.018 -0.011,0.043 0,0.01 0.004,0.024 0.007,0.038 0.243,0.018 0.268,0.064 0.278,0.141 0.004,0.049 0.004,0.25 0.004,0.454 l 0,0.555 c 0,0.071 0,0.141 -0.011,0.187 -0.046,0 -0.197,0 -0.239,-0.018 C -1.252,0.317 -1.337,0.215 -1.431,0.028 -1.446,0.025 -1.463,0.025 -1.474,0.025 c -0.014,0 -0.024,0.003 -0.035,0.014 l 0,0.39 c 0,0.035 0.007,0.046 0.046,0.046 0.039,0 0.091,-0.004 0.165,-0.004 0.056,0 0.278,-0.003 0.556,-0.003 0.362,0 0.636,0.01 0.703,0.01 0.039,0 0.064,0 0.074,-0.014 C 0.042,0.457 0.039,0.429 0.039,0.408 l 0,-0.39 C 0.028,0.004 0.014,0 0,0"
           inkscape:connector-curvature="0" />
      </g>
      <g
         transform="matrix(1.25,0,0,-1.25,219.20608,1324.1138)"
         id="g3181">
        <path
           id="path3183"
           style="fill:#231f20;fill-opacity:1;fill-rule:nonzero;stroke:none"
           d="m 0,0 c -0.137,-0.01 -0.229,-0.084 -0.271,-0.179 l -0.577,-1.284 c 0,0 -0.028,-0.021 -0.045,-0.021 -0.018,0 -0.043,0.021 -0.053,0.06 -0.014,0.045 -0.084,0.225 -0.239,0.576 l -0.183,0.419 c -0.067,0.155 -0.12,0.257 -0.137,0.288 -0.071,0.116 -0.152,0.127 -0.243,0.141 -0.014,0.014 -0.014,0.028 -0.014,0.039 0,0.014 0,0.021 0.011,0.038 l 0.094,0 c 0.106,0 0.197,-0.007 0.278,-0.007 0.095,0 0.253,0.011 0.363,0.011 l 0.059,0 c 0.014,-0.004 0.018,-0.025 0.018,-0.035 0,-0.007 0,-0.032 -0.007,-0.042 C -1.02,-0.003 -1.175,0 -1.175,-0.098 c 0,-0.022 0,-0.06 0.014,-0.085 l 0.377,-0.9 0.32,0.745 c 0.035,0.085 0.038,0.159 0.038,0.197 0,0.085 -0.059,0.124 -0.218,0.141 -0.003,0.011 -0.007,0.025 -0.007,0.035 0,0.014 0.004,0.035 0.007,0.046 l 0.046,0 c 0.071,0 0.141,-0.011 0.303,-0.011 0.024,0 0.137,0.007 0.189,0.007 l 0.11,0 C 0.011,0.063 0.014,0.056 0.014,0.042 0.014,0.032 0.011,0.011 0,0"
           inkscape:connector-curvature="0" />
      </g>
      <g
         transform="matrix(1.25,0,0,-1.25,222.14283,1325.9118)"
         id="g3185">
        <path
           id="path3187"
           style="fill:#231f20;fill-opacity:1;fill-rule:nonzero;stroke:none"
           d="m 0,0 -0.612,0.007 -0.172,0 c -0.007,0.014 -0.007,0.032 -0.007,0.039 0,0.021 0,0.024 0.01,0.038 0.036,0.004 0.113,0 0.155,0.014 0.06,0.029 0.084,0.092 0.084,0.183 l 0,0.887 c 0,0 0.004,0.161 0.004,0.207 l -0.007,0 -0.32,-0.71 C -0.904,0.587 -0.942,0.503 -0.981,0.418 -1.052,0.253 -1.094,0.141 -1.115,0.074 -1.122,0.046 -1.146,0.046 -1.164,0.046 c -0.018,0 -0.032,0.007 -0.046,0.042 -0.038,0.091 -0.067,0.151 -0.081,0.19 l -0.51,1.115 -0.01,0 0,-0.285 0.01,-0.711 c 0.004,-0.218 0.113,-0.32 0.289,-0.32 0.007,-0.01 0.01,-0.031 0.01,-0.035 0,-0.01 0,-0.024 -0.007,-0.039 C -1.523,0.003 -1.555,0 -1.59,0 -1.611,0 -1.72,0.01 -1.882,0.01 -1.931,0.01 -2.026,0.007 -2.096,0.007 l -0.102,0 c -0.007,0.014 -0.011,0.025 -0.011,0.039 0,0.003 0.004,0.021 0.011,0.031 0.039,0.011 0.19,0.046 0.222,0.078 0.028,0.031 0.056,0.095 0.056,0.246 L -1.917,0.76 -1.92,1.182 c -0.004,0.123 -0.014,0.172 -0.078,0.214 -0.024,0.018 -0.119,0.028 -0.197,0.039 -0.01,0.014 -0.014,0.032 -0.014,0.042 0,0.011 0.004,0.025 0.014,0.042 0.057,0 0.166,-0.007 0.268,-0.007 l 0.372,0 c 0.011,-0.01 0.022,-0.017 0.029,-0.038 l 0.453,-1.027 0.085,0.204 c 0.067,0.165 0.172,0.415 0.316,0.682 0.028,0.06 0.071,0.137 0.092,0.176 l 0.573,0.01 C 0,1.505 0.011,1.495 0.011,1.481 0.011,1.467 0.004,1.456 -0.003,1.442 -0.063,1.431 -0.172,1.431 -0.225,1.344 -0.243,1.315 -0.257,1.287 -0.257,1.164 l 0,-0.735 c 0,-0.281 0.071,-0.309 0.106,-0.331 C -0.137,0.088 -0.049,0.077 0,0.077 0.011,0.063 0.014,0.053 0.014,0.039 0.014,0.018 0.007,0.014 0,0"
           inkscape:connector-curvature="0" />
      </g>
    </g>
  </g>
</svg>
