<?xml version="1.0" encoding="UTF-8" standalone="no"?>
<!-- Created with Inkscape (http://www.inkscape.org/) -->

<svg
   xmlns:dc="http://purl.org/dc/elements/1.1/"
   xmlns:cc="http://creativecommons.org/ns#"
   xmlns:rdf="http://www.w3.org/1999/02/22-rdf-syntax-ns#"
   xmlns:svg="http://www.w3.org/2000/svg"
   xmlns="http://www.w3.org/2000/svg"
   xmlns:sodipodi="http://sodipodi.sourceforge.net/DTD/sodipodi-0.dtd"
   xmlns:inkscape="http://www.inkscape.org/namespaces/inkscape"
   width="253.4415"
   height="84.751198"
   id="svg2"
   version="1.1"
   inkscape:version="0.48.4 r9939"
   sodipodi:docname="princeton-logo-long.svg"
   inkscape:export-filename="/home/pivarski/talks/2017-10-25-aps-nuclear/princeton-logo-long.png"
   inkscape:export-xdpi="212.38638"
   inkscape:export-ydpi="212.38638">
  <defs
     id="defs4">
    <clipPath
       id="clipPath3045"
       clipPathUnits="userSpaceOnUse">
      <path
         id="path3047"
         d="m 30,29.038 232,0 0,85.537 -232,0 0,-85.537 z"
         inkscape:connector-curvature="0" />
    </clipPath>
  </defs>
  <sodipodi:namedview
     id="base"
     pagecolor="#070954"
     bordercolor="#666666"
     borderopacity="1.0"
     inkscape:pageopacity="0"
     inkscape:pageshadow="2"
     inkscape:zoom="4"
     inkscape:cx="107.36576"
     inkscape:cy="48.264055"
     inkscape:document-units="px"
     inkscape:current-layer="g3529"
     showgrid="false"
     fit-margin-top="5"
     fit-margin-left="5"
     fit-margin-right="5"
     fit-margin-bottom="10"
     inkscape:window-width="1080"
     inkscape:window-height="1027"
     inkscape:window-x="834"
     inkscape:window-y="0"
     inkscape:window-maximized="0" />
  <metadata
     id="metadata7">
    <rdf:RDF>
      <cc:Work
         rdf:about="">
        <dc:format>image/svg+xml</dc:format>
        <dc:type
           rdf:resource="http://purl.org/dc/dcmitype/StillImage" />
        <dc:title></dc:title>
      </cc:Work>
    </rdf:RDF>
  </metadata>
  <g
     inkscape:label="Calque 1"
     inkscape:groupmode="layer"
     id="layer1"
     transform="translate(-306.68124,-448.06817)">
    <g
       transform="matrix(1.25,0,0,-1.25,0,1052.5)"
       inkscape:label="ink_ext_XXXXXX"
       id="g2993">
      <g
         transform="scale(0.1,0.1)"
         id="g2995" />
    </g>
    <g
       transform="matrix(1.25,0,0,-1.25,0,1052.5)"
       inkscape:label="ink_ext_XXXXXX"
       id="g3007">
      <g
         transform="scale(0.1,0.1)"
         id="g3009" />
    </g>
    <g
       transform="matrix(1.25,0,0,-1.25,0,1052.5)"
       inkscape:label="ink_ext_XXXXXX"
       id="g3021">
      <g
         transform="scale(0.1,0.1)"
         id="g3023" />
    </g>
    <g
       id="g3529"
       transform="matrix(0.99288268,0,0,0.99288268,126.48577,-839.05902)">
      <g
         transform="matrix(1.25,0,0,-1.25,213.42796,1370.6865)"
         id="g3049">
        <path
           id="path3051"
           style="fill:#ffffff;fill-opacity:1;fill-rule:nonzero;stroke:none"
           d="M 0,0 C -3.695,2.763 -7.014,5.991 -9.865,9.595 L -10.116,9.913 0.263,20.013 10.675,9.889 10.422,9.57 C 7.567,5.977 4.242,2.757 0.539,0 L 0.269,-0.201 0,0 z"
           inkscape:connector-curvature="0" />
      </g>
      <g
         transform="matrix(1.25,0,0,-1.25,213.75671,1344.8858)"
         id="g3053">
        <path
           id="path3055"
           style="fill:#ffffff;fill-opacity:1;fill-rule:nonzero;stroke:none"
           d="m 0,0 -0.628,-0.61 -9.774,-9.511 -0.582,-0.566 0.504,-0.638 c 2.874,-3.635 6.222,-6.89 9.948,-9.676 l 0.538,-0.403 0.539,0.401 c 3.735,2.782 7.087,6.03 9.966,9.651 l 0.507,0.639 -0.584,0.568 L 0.628,-0.61 0,0 z m 0,-1.256 9.806,-9.535 c -2.845,-3.58 -6.145,-6.767 -9.799,-9.489 -3.693,2.761 -6.974,5.965 -9.781,9.514 L 0,-1.256"
           inkscape:connector-curvature="0" />
      </g>
      <g
         transform="matrix(1.25,0,0,-1.25,213.76996,1333.3738)"
         id="g3057">
        <path
           id="path3059"
           style="fill:#ffffff;fill-opacity:1;fill-rule:nonzero;stroke:none"
           d="m 0,0 -14.454,-13.884 -0.285,0.508 c -2.591,4.611 -4.449,9.54 -5.521,14.647 l -0.114,0.542 40.758,0 L 20.13,0.567 C 19.025,-4.35 17.222,-9.051 14.767,-13.416 L 14.482,-13.923 0,0 z"
           inkscape:connector-curvature="0" />
      </g>
      <g
         transform="matrix(1.25,0,0,-1.25,239.94208,1330.5446)"
         id="g3061">
        <path
           id="path3063"
           style="fill:#ffffff;fill-opacity:1;fill-rule:nonzero;stroke:none"
           d="m 0,0 -1.108,0 -39.649,0 -1.109,0 0.228,-1.085 c 1.082,-5.152 2.955,-10.122 5.569,-14.776 l 0.569,-1.013 0.839,0.806 13.723,13.18 13.751,-13.219 0.839,-0.805 0.569,1.013 c 2.477,4.401 4.296,9.144 5.409,14.098 l 0.075,0.377 0.068,0.34 L 0,0 z m -1.108,-0.9 c -0.049,-0.236 -0.091,-0.468 -0.141,-0.704 -1.115,-4.964 -2.926,-9.609 -5.314,-13.854 l -14.375,13.819 -14.346,-13.78 c -2.54,4.519 -4.4,9.408 -5.473,14.519 l 39.649,0"
           inkscape:connector-curvature="0" />
      </g>
      <g
         transform="matrix(1.25,0,0,-1.25,213.75896,1347.2401)"
         id="g3065">
        <path
           id="path3067"
           style="fill:#ffffff;fill-opacity:1;fill-rule:nonzero;stroke:none"
           d="m 0,0 -9.818,-9.553 -0.31,0.391 c -1.72,2.175 -3.272,4.489 -4.611,6.879 l -0.17,0.305 L 0,12.342 14.937,-2.019 14.767,-2.321 C 13.418,-4.724 11.868,-7.034 10.158,-9.187 L 9.849,-9.577 0,0 z"
           inkscape:connector-curvature="0" />
      </g>
      <g
         transform="matrix(1.25,0,0,-1.25,213.75896,1331.0326)"
         id="g3069">
        <path
           id="path3071"
           style="fill:#ffffff;fill-opacity:1;fill-rule:nonzero;stroke:none"
           d="m 0,0 -0.623,-0.599 -14.347,-13.781 -0.502,-0.482 0.34,-0.607 c 1.351,-2.409 2.916,-4.744 4.652,-6.939 l 0.619,-0.782 0.715,0.696 9.146,8.9 9.178,-8.925 0.714,-0.694 0.619,0.781 c 1.724,2.171 3.288,4.502 4.649,6.923 l 0.341,0.609 -0.502,0.481 L 0.624,-0.6 0,0 z m 0,-1.249 14.375,-13.819 c -1.347,-2.398 -2.877,-4.674 -4.569,-6.805 L 0,-12.338 -9.774,-21.849 c -1.706,2.156 -3.236,4.436 -4.573,6.82 L 0,-1.249"
           inkscape:connector-curvature="0" />
      </g>
      <g
         transform="matrix(1.25,0,0,-1.25,213.75896,1347.2401)"
         id="g3073">
        <path
           id="path3075"
           style="fill:#ffffff;fill-opacity:1;fill-rule:nonzero;stroke:none"
           d="m 0,0 -9.818,-9.553 -0.31,0.391 c -1.72,2.175 -3.272,4.489 -4.611,6.879 l -0.17,0.305 L 0,12.342 14.937,-2.019 14.767,-2.321 C 13.418,-4.724 11.868,-7.034 10.158,-9.187 L 9.849,-9.577 0,0 z"
           inkscape:connector-curvature="0" />
      </g>
      <g
         transform="matrix(1.25,0,0,-1.25,213.75896,1331.0326)"
         id="g3077">
        <path
           id="path3079"
           style="fill:#ffffff;fill-opacity:1;fill-rule:nonzero;stroke:none"
           d="m 0,0 -0.623,-0.599 -14.347,-13.781 -0.502,-0.482 0.34,-0.607 c 1.351,-2.409 2.916,-4.744 4.652,-6.939 l 0.619,-0.782 0.715,0.696 9.146,8.9 9.178,-8.925 0.714,-0.694 0.619,0.781 c 1.724,2.171 3.288,4.502 4.649,6.923 l 0.341,0.609 -0.502,0.481 L 0.624,-0.6 0,0 z m 0,-1.249 14.375,-13.819 c -1.347,-2.398 -2.877,-4.674 -4.569,-6.805 L 0,-12.338 -9.774,-21.849 c -1.706,2.156 -3.236,4.436 -4.573,6.82 L 0,-1.249"
           inkscape:connector-curvature="0" />
      </g>
      <g
         transform="matrix(1.25,0,0,-1.25,188.52646,1332.2472)"
         id="g3081">
        <path
           id="path3083"
           style="fill:#ffffff;fill-opacity:1;fill-rule:nonzero;stroke:none"
           d="m 0,0 -0.075,0.358 c -1.021,4.879 -1.319,9.87 -0.883,14.834 l 0.048,0.552 0.531,-0.161 c 1.68,-0.51 3.429,-0.769 5.198,-0.769 6.141,0 11.888,3.204 14.999,8.361 l 0.385,0.64 0.386,-0.64 c 3.106,-5.157 8.852,-8.361 14.994,-8.361 1.774,0 3.524,0.26 5.205,0.772 l 0.532,0.162 0.047,-0.554 C 41.793,10.269 41.486,5.278 40.455,0.358 L 40.381,0 0,0 z"
           inkscape:connector-curvature="0" />
      </g>
      <g
         transform="matrix(1.25,0,0,-1.25,213.77983,1301.3896)"
         id="g3085">
        <path
           id="path3087"
           style="fill:#ffffff;fill-opacity:1;fill-rule:nonzero;stroke:none"
           d="M 0,0 -0.771,-1.278 C -3.8,-6.301 -9.4,-9.422 -15.384,-9.422 c -1.723,0 -3.428,0.253 -5.067,0.75 l -1.062,0.321 -0.096,-1.104 c -0.44,-5.008 -0.14,-10.043 0.891,-14.966 l 0.15,-0.715 0.731,0 39.649,0 0.732,0 0.149,0.715 c 1.04,4.964 1.349,10 0.92,14.968 l -0.096,1.108 -1.064,-0.324 c -1.637,-0.499 -3.344,-0.753 -5.072,-0.753 -5.986,0 -11.584,3.12 -14.61,8.143 L 0,0 z m 0,-1.744 c 3.092,-5.131 8.821,-8.578 15.381,-8.578 1.86,0 3.65,0.278 5.335,0.791 0.415,-4.808 0.134,-9.749 -0.904,-14.705 l -39.649,0 c -0.995,4.752 -1.315,9.693 -0.876,14.702 1.682,-0.51 3.472,-0.788 5.329,-0.788 6.559,0 12.289,3.447 15.384,8.578"
           inkscape:connector-curvature="0" />
      </g>
      <g
         transform="matrix(1.25,0,0,-1.25,201.53908,1358.3433)"
         id="g3089">
        <path
           id="path3091"
           style="fill:#f46f1b;fill-opacity:1;fill-rule:nonzero;stroke:none"
           d="m 0,0 c 2.807,-3.549 6.088,-6.753 9.781,-9.514 3.654,2.722 6.954,5.909 9.799,9.489 L 9.774,9.51 0,0 z"
           inkscape:connector-curvature="0" />
      </g>
      <g
         transform="matrix(1.25,0,0,-1.25,195.83683,1349.8186)"
         id="g3093">
        <path
           id="path3095"
           style="fill:#f46f1b;fill-opacity:1;fill-rule:nonzero;stroke:none"
           d="M 0,0 14.347,13.78 28.721,-0.039 c 2.388,4.245 4.2,8.89 5.315,13.854 0.049,0.236 0.091,0.468 0.14,0.704 l -39.649,0 C -4.4,9.408 -2.539,4.519 0,0"
           inkscape:connector-curvature="0" />
      </g>
      <g
         transform="matrix(1.25,0,0,-1.25,195.82583,1349.8186)"
         id="g3097">
        <path
           id="path3099"
           style="fill:#f46f1b;fill-opacity:1;fill-rule:nonzero;stroke:none"
           d="m 0,0 c 1.337,-2.385 2.866,-4.664 4.572,-6.82 l 9.775,9.511 9.805,-9.535 c 1.692,2.131 3.222,4.407 4.569,6.805 L 14.347,13.78 0,0 z"
           inkscape:connector-curvature="0" />
      </g>
      <g
         transform="matrix(1.25,0,0,-1.25,213.75896,1345.6706)"
         id="g3101">
        <path
           id="path3103"
           style="fill:#231f20;fill-opacity:1;fill-rule:nonzero;stroke:none"
           d="m 0,0 -9.728,-9.466 c -1.499,1.93 -2.86,3.967 -4.055,6.065 L 0,9.837 13.811,-3.44 C 12.608,-5.547 11.248,-7.579 9.761,-9.491 L 0,0 z"
           inkscape:connector-curvature="0" />
      </g>
      <g
         transform="matrix(1.25,0,0,-1.25,213.75896,1332.5934)"
         id="g3105">
        <path
           id="path3107"
           style="fill:#231f20;fill-opacity:1;fill-rule:nonzero;stroke:none"
           d="m 0,0 -14.347,-13.78 c 1.337,-2.385 2.867,-4.664 4.573,-6.82 L 0,-11.09 9.806,-20.625 c 1.692,2.132 3.222,4.407 4.569,6.806 L 0,0 z m 0,-1.249 13.245,-12.733 c -1.064,-1.835 -2.248,-3.611 -3.532,-5.296 l -9.085,8.834 -0.628,0.61 -0.628,-0.61 -9.052,-8.809 c -1.293,1.701 -2.479,3.48 -3.537,5.309 L 0,-1.249"
           inkscape:connector-curvature="0" />
      </g>
      <g
         transform="matrix(1.25,0,0,-1.25,239.67483,1313.3027)"
         id="g3109">
        <path
           id="path3111"
           style="fill:#231f20;fill-opacity:1;fill-rule:nonzero;stroke:none"
           d="m 0,0 c -1.685,-0.514 -3.475,-0.791 -5.335,-0.791 -6.56,0 -12.289,3.446 -15.381,8.578 -3.095,-5.132 -8.825,-8.578 -15.384,-8.578 -1.857,0 -3.647,0.277 -5.329,0.787 -0.439,-5.008 -0.119,-9.95 0.876,-14.701 l 39.649,0 C 0.134,-9.75 0.415,-4.808 0,0"
           inkscape:connector-curvature="0" />
      </g>
      <g
         transform="matrix(1.25,0,0,-1.25,225.98646,1320.8833)"
         id="g3113">
        <path
           id="path3115"
           style="fill:#ffffff;fill-opacity:1;fill-rule:nonzero;stroke:none"
           d="m 0,0 0,1.685 -1.03,0 0,1.189 -1.08,0.302 -0.078,0 0,1.009 c 0,0 -0.372,-0.446 -2.082,-0.446 -1.618,0 -2.567,0.524 -3.855,0.524 -1.238,0 -1.617,-0.707 -1.617,-0.707 l 0,-0.408 -0.043,0 0,0.408 c 0,0 -0.387,0.707 -1.618,0.707 -1.287,0 -2.237,-0.528 -3.854,-0.528 -1.71,0 -2.005,0.447 -2.005,0.447 l 0,-1.062 -0.071,0 -1.171,-0.246 0,-1.189 -1.034,0 0,-1.685 1.034,0 0,-2.726 -1.034,0 0,-1.688 1.034,0 0,-2.096 c 0,0 1.734,-0.271 3.338,-0.271 1.896,0 2.99,0.274 4.221,0.299 l 0,-0.531 c 0,0 0.496,-0.247 1.157,-0.247 0.668,0 1.199,0.247 1.199,0.247 l 0,0.531 c 1.228,-0.025 2.322,-0.299 4.228,-0.299 1.597,0 3.331,0.271 3.331,0.271 l 0,2.096 1.03,0 0,1.688 -1.03,0 L -1.03,0 0,0 z"
           inkscape:connector-curvature="0" />
      </g>
      <g
         transform="matrix(1.25,0,0,-1.25,224.44571,1328.8849)"
         id="g3117">
        <path
           id="path3119"
           style="fill:#231f20;fill-opacity:1;fill-rule:nonzero;stroke:none"
           d="m 0,0 c -0.441,-0.063 -1.846,-0.246 -3.153,-0.246 -1.874,0 -4.185,0.292 -4.208,0.295 l -0.202,0.028 0,-0.615 c -0.178,-0.067 -0.566,-0.187 -1.02,-0.187 -0.445,0 -0.809,0.12 -0.978,0.183 l 0,0.619 -0.202,-0.028 c -0.023,-0.003 -2.335,-0.295 -4.198,-0.295 -1.311,0 -2.717,0.183 -3.158,0.246 l 0,9.084 c 0.165,0.032 0.656,0.137 0.895,0.186 l 0,-8.228 c 0.088,-0.19 0.464,-0.626 2.184,-0.626 l 2.177,0.285 1.664,0.239 c 1.111,0 1.46,-0.591 1.475,-0.615 l 0.052,0.028 0.256,0 0.049,-0.028 c 0.015,0.024 0.357,0.615 1.46,0.615 l 1.663,-0.236 2.195,-0.288 c 1.743,0 2.179,0.457 2.222,0.51 l 0.034,8.387 C -0.565,9.249 -0.146,9.133 0,9.091 L 0,0 z M -15.865,10.195 C -15.577,10.051 -15.06,9.9 -14.04,9.9 l 2.193,0.288 1.662,0.239 c 1.092,0 1.44,-0.583 1.46,-0.615 l 0,-8.977 c -0.266,0.221 -0.712,0.464 -1.474,0.464 l -1.741,-0.246 -2.1,-0.278 c -1.537,0 -1.857,0.369 -1.86,0.372 0,0 0.031,8.436 0.035,9.048 m 7.498,-0.383 c 0.015,0.025 0.357,0.615 1.46,0.615 l 1.663,-0.235 2.195,-0.288 c 1.063,0 1.604,0.165 1.904,0.309 l 0,-9.157 C -1.168,1.102 -1.599,0.775 -3.049,0.775 l -2.117,0.281 -1.741,0.243 c -0.754,0 -1.196,-0.243 -1.46,-0.461 l 0,8.974 z m 7.576,-0.123 0.005,1.291 -0.313,-0.331 c -0.004,-0.003 -0.388,-0.387 -1.95,-0.387 l -2.117,0.282 -1.741,0.242 c -0.955,0 -1.431,-0.39 -1.639,-0.626 -0.209,0.236 -0.689,0.626 -1.639,0.626 l -1.739,-0.246 -2.116,-0.281 c -1.537,0 -1.857,0.369 -1.86,0.373 l -0.319,0.39 -0.005,-0.496 0,-0.886 -1.254,-0.264 0,-9.689 0.152,-0.021 c 0.017,-0.004 1.765,-0.274 3.365,-0.274 1.578,0 3.451,0.207 4.042,0.277 l 0,-0.439 0.098,-0.053 c 0.023,-0.011 0.542,-0.264 1.238,-0.264 0.7,0 1.252,0.253 1.275,0.264 l 0.104,0.049 0,0.443 c 0.591,-0.07 2.464,-0.277 4.051,-0.277 1.594,0 3.344,0.27 3.361,0.274 l 0.152,0.021 0,9.678 -1.151,0.324 z"
           inkscape:connector-curvature="0" />
      </g>
      <g
         transform="matrix(1.25,0,0,-1.25,207.80171,1318.1566)"
         id="g3121">
        <path
           id="path3123"
           style="fill:#231f20;fill-opacity:1;fill-rule:nonzero;stroke:none"
           d="m 0,0 c -0.141,-0.011 -0.232,-0.084 -0.274,-0.179 l -0.577,-1.284 c 0,0 -0.028,-0.021 -0.046,-0.021 -0.017,0 -0.039,0.021 -0.053,0.06 -0.014,0.045 -0.084,0.225 -0.235,0.576 l -0.187,0.419 c -0.066,0.155 -0.119,0.257 -0.137,0.288 -0.067,0.116 -0.151,0.127 -0.242,0.141 -0.011,0.014 -0.011,0.028 -0.011,0.039 0,0.014 0,0.021 0.007,0.038 l 0.095,0 c 0.109,0 0.2,-0.007 0.281,-0.007 0.095,0 0.253,0.011 0.359,0.011 l 0.063,0 c 0.011,-0.004 0.014,-0.025 0.014,-0.035 0,-0.007 0,-0.032 -0.007,-0.042 C -1.02,-0.004 -1.178,0 -1.178,-0.098 c 0,-0.022 0.003,-0.06 0.014,-0.085 l 0.38,-0.9 0.316,0.745 c 0.039,0.085 0.042,0.159 0.042,0.197 0,0.085 -0.059,0.123 -0.218,0.141 -0.003,0.011 -0.01,0.025 -0.01,0.035 0,0.014 0.007,0.035 0.01,0.046 l 0.046,0 c 0.071,0 0.141,-0.011 0.299,-0.011 0.028,0 0.137,0.007 0.19,0.007 L 0,0.077 C 0.007,0.063 0.014,0.056 0.014,0.042 0.014,0.032 0.007,0.011 0,0"
           inkscape:connector-curvature="0" />
      </g>
      <g
         transform="matrix(1.25,0,0,-1.25,209.81096,1319.9547)"
         id="g3125">
        <path
           id="path3127"
           style="fill:#231f20;fill-opacity:1;fill-rule:nonzero;stroke:none"
           d="m 0,0 c -0.461,0 -0.71,0.01 -0.774,0.01 -0.049,0 -0.161,0.004 -0.218,0.004 -0.063,0 -0.211,-0.011 -0.373,-0.011 l -0.091,0.004 c -0.007,0.014 -0.007,0.021 -0.007,0.035 0,0.011 0,0.028 0.003,0.042 0.123,0.011 0.212,0.032 0.233,0.05 0.024,0.031 0.042,0.095 0.049,0.232 0,0.07 0.003,0.147 0.003,0.228 0,0.116 -0.003,0.257 -0.003,0.426 l 0,0.239 c -0.004,0.165 -0.085,0.165 -0.257,0.186 -0.003,0.015 -0.007,0.029 -0.007,0.039 0,0.011 0.004,0.035 0.014,0.039 l 0.084,0 c 0.057,0 0.208,-0.004 0.496,-0.004 0.264,0 0.521,-0.003 0.577,-0.003 0.035,0 0.137,-0.004 0.159,-0.004 0.035,0 0.049,-0.003 0.049,-0.035 L -0.042,1.133 C -0.063,1.122 -0.067,1.118 -0.084,1.118 c -0.014,0 -0.025,0 -0.036,0.004 -0.101,0.172 -0.151,0.207 -0.228,0.264 -0.028,0.021 -0.07,0.035 -0.134,0.038 -0.021,0 -0.074,0.004 -0.204,0.004 -0.105,0 -0.158,-0.004 -0.172,-0.004 -0.018,0 -0.014,0 -0.021,-0.059 C -0.883,1.329 -0.886,1.259 -0.886,1.059 l 0,-0.197 0.052,0 c 0.067,0 0.134,0.007 0.173,0.017 0.06,0.018 0.123,0.06 0.155,0.109 0.014,0.018 0.028,0.102 0.035,0.127 0.01,0.007 0.028,0.01 0.049,0.01 0.014,0 0.028,-0.003 0.039,-0.01 -0.004,-0.063 -0.014,-0.179 -0.014,-0.327 0,-0.074 0.007,-0.236 0.007,-0.303 -0.014,-0.01 -0.021,-0.01 -0.043,-0.01 -0.01,0 -0.031,0 -0.042,0.003 -0.014,0.13 -0.035,0.218 -0.144,0.264 -0.06,0.025 -0.109,0.032 -0.169,0.032 -0.032,0 -0.07,-0.004 -0.102,-0.007 l 0,-0.398 c 0,-0.091 0.007,-0.147 0.021,-0.179 0.011,-0.025 0.046,-0.077 0.092,-0.084 0.021,-0.004 0.06,-0.011 0.14,-0.011 l 0.219,0 c 0.056,0 0.137,0.007 0.165,0.025 0.053,0.035 0.193,0.186 0.243,0.327 0.021,0.007 0.031,0.007 0.045,0.007 0.014,0 0.028,-0.004 0.046,-0.011 l 0,-0.401 C 0.081,0.003 0.056,0 0,0"
           inkscape:connector-curvature="0" />
      </g>
      <g
         transform="matrix(1.25,0,0,-1.25,212.09708,1318.6533)"
         id="g3129">
        <path
           id="path3131"
           style="fill:#231f20;fill-opacity:1;fill-rule:nonzero;stroke:none"
           d="M 0,0 C -0.01,0 -0.025,0.004 -0.042,0.004 -0.077,0.099 -0.12,0.183 -0.155,0.229 -0.218,0.306 -0.278,0.359 -0.436,0.376 -0.471,0.38 -0.556,0.38 -0.584,0.38 l -0.003,-0.672 c 0,-0.105 0,-0.229 0.003,-0.461 0.004,-0.175 0.081,-0.175 0.264,-0.2 0.011,-0.018 0.014,-0.032 0.014,-0.042 0,-0.014 -0.003,-0.025 -0.01,-0.039 l -0.067,0 c -0.106,0 -0.317,0.007 -0.384,0.007 -0.045,0 -0.277,-0.011 -0.387,-0.011 -0.01,0.018 -0.014,0.018 -0.014,0.043 0,0.01 0.004,0.024 0.011,0.038 0.243,0.018 0.267,0.064 0.274,0.141 0.007,0.049 0.007,0.25 0.007,0.454 l 0,0.555 c 0,0.071 -0.003,0.141 -0.014,0.187 -0.046,0 -0.193,0 -0.236,-0.018 C -1.249,0.317 -1.337,0.214 -1.431,0.028 -1.442,0.025 -1.46,0.025 -1.47,0.025 c -0.014,0 -0.028,0.003 -0.035,0.014 l 0,0.39 c 0,0.035 0.003,0.046 0.045,0.046 0.036,0 0.092,-0.004 0.166,-0.004 0.052,0 0.274,-0.003 0.552,-0.003 0.366,0 0.636,0.01 0.707,0.01 0.035,0 0.06,0 0.074,-0.014 0.003,-0.007 0,-0.035 0,-0.056 l 0,-0.39 C 0.032,0.004 0.014,0 0,0"
           inkscape:connector-curvature="0" />
      </g>
      <g
         transform="matrix(1.25,0,0,-1.25,207.70946,1321.6297)"
         id="g3133">
        <path
           id="path3135"
           style="fill:#231f20;fill-opacity:1;fill-rule:nonzero;stroke:none"
           d="M 0,0 C -0.014,0 -0.025,0.004 -0.046,0.004 -0.077,0.098 -0.12,0.183 -0.158,0.229 -0.218,0.306 -0.281,0.359 -0.44,0.376 -0.475,0.38 -0.559,0.38 -0.587,0.38 l -0.004,-0.672 c 0,-0.106 0,-0.228 0.004,-0.461 0.003,-0.176 0.084,-0.176 0.267,-0.2 0.01,-0.018 0.01,-0.032 0.01,-0.042 0,-0.014 0,-0.025 -0.007,-0.039 l -0.066,0 c -0.109,0 -0.32,0.007 -0.384,0.007 -0.046,0 -0.278,-0.011 -0.39,-0.011 -0.007,0.018 -0.011,0.018 -0.011,0.043 0,0.01 0.004,0.024 0.007,0.038 0.243,0.018 0.268,0.064 0.278,0.141 0.004,0.049 0.004,0.25 0.004,0.454 l 0,0.556 c 0,0.07 0,0.14 -0.011,0.186 -0.046,0 -0.197,0 -0.239,-0.018 C -1.252,0.317 -1.337,0.215 -1.431,0.028 -1.446,0.025 -1.463,0.025 -1.474,0.025 c -0.014,0 -0.024,0.003 -0.035,0.014 l 0,0.39 c 0,0.035 0.007,0.046 0.046,0.046 0.039,0 0.091,-0.004 0.165,-0.004 0.057,0 0.278,-0.003 0.556,-0.003 0.362,0 0.636,0.01 0.703,0.01 0.039,0 0.064,0 0.074,-0.014 C 0.042,0.457 0.039,0.429 0.039,0.408 l 0,-0.39 C 0.028,0.004 0.014,0 0,0"
           inkscape:connector-curvature="0" />
      </g>
      <g
         transform="matrix(1.25,0,0,-1.25,209.88133,1322.9311)"
         id="g3137">
        <path
           id="path3139"
           style="fill:#231f20;fill-opacity:1;fill-rule:nonzero;stroke:none"
           d="m 0,0 c -0.457,0 -0.711,0.011 -0.77,0.011 -0.05,0 -0.162,0.003 -0.222,0.003 -0.06,0 -0.211,-0.01 -0.369,-0.01 l -0.092,0.003 c -0.007,0.014 -0.01,0.021 -0.01,0.035 0,0.011 0,0.028 0.007,0.042 0.123,0.011 0.211,0.032 0.228,0.05 0.028,0.031 0.043,0.095 0.05,0.232 0.003,0.07 0.007,0.148 0.007,0.228 0,0.116 -0.004,0.257 -0.004,0.426 0,0.12 -0.003,0.19 -0.003,0.239 -0.004,0.165 -0.081,0.165 -0.254,0.187 -0.007,0.014 -0.01,0.028 -0.01,0.038 0,0.011 0.007,0.036 0.017,0.039 l 0.081,0 c 0.06,0 0.208,-0.003 0.496,-0.003 0.268,0 0.521,-0.004 0.581,-0.004 0.031,0 0.137,-0.004 0.154,-0.004 0.039,0 0.053,-0.003 0.053,-0.035 L -0.042,1.132 C -0.06,1.122 -0.067,1.118 -0.084,1.118 c -0.011,0 -0.022,0 -0.036,0.004 -0.098,0.172 -0.147,0.208 -0.228,0.264 -0.028,0.021 -0.067,0.035 -0.131,0.038 -0.021,0 -0.073,0.004 -0.207,0.004 -0.102,0 -0.158,-0.004 -0.169,-0.004 -0.021,0 -0.017,0 -0.024,-0.059 0,-0.035 -0.004,-0.106 -0.004,-0.306 l 0,-0.197 0.049,0 c 0.071,0 0.137,0.007 0.173,0.017 0.063,0.018 0.123,0.06 0.158,0.109 0.01,0.018 0.028,0.102 0.032,0.127 0.014,0.007 0.031,0.011 0.049,0.011 0.018,0 0.032,-0.004 0.042,-0.011 -0.003,-0.063 -0.017,-0.179 -0.017,-0.327 0,-0.074 0.01,-0.236 0.01,-0.303 -0.017,-0.01 -0.021,-0.01 -0.042,-0.01 -0.014,0 -0.032,0 -0.046,0.003 -0.014,0.131 -0.032,0.218 -0.144,0.264 -0.06,0.025 -0.109,0.032 -0.165,0.032 -0.032,0 -0.071,-0.004 -0.102,-0.007 l 0,-0.398 c 0,-0.091 0.007,-0.147 0.017,-0.179 0.014,-0.025 0.049,-0.077 0.092,-0.084 0.021,-0.004 0.063,-0.011 0.14,-0.011 l 0.222,0 c 0.056,0 0.134,0.007 0.162,0.025 0.056,0.035 0.197,0.186 0.246,0.327 0.017,0.007 0.032,0.007 0.046,0.007 0.01,0 0.028,-0.004 0.042,-0.011 l 0,-0.401 C 0.081,0.004 0.056,0 0,0"
           inkscape:connector-curvature="0" />
      </g>
      <g
         transform="matrix(1.25,0,0,-1.25,211.21771,1322.9749)"
         id="g3141">
        <path
           id="path3143"
           style="fill:#231f20;fill-opacity:1;fill-rule:nonzero;stroke:none"
           d="m 0,0 c -0.127,0 -0.267,0.049 -0.352,0.091 -0.014,0.008 -0.042,0.015 -0.056,0.015 -0.017,0 -0.063,-0.025 -0.113,-0.06 -0.035,0 -0.077,0.017 -0.087,0.045 0,0.032 0.028,0.127 0.028,0.187 0,0.035 -0.011,0.207 -0.014,0.246 0.014,0.021 0.042,0.032 0.066,0.032 l 0.025,0 c 0.032,-0.064 0.095,-0.229 0.141,-0.296 0.095,-0.109 0.235,-0.158 0.337,-0.158 0.113,0 0.197,0.021 0.247,0.074 0.07,0.067 0.084,0.109 0.084,0.183 0,0.056 -0.01,0.102 -0.042,0.137 C 0.225,0.545 0.193,0.566 0.106,0.608 0.039,0.64 -0.197,0.7 -0.281,0.746 -0.387,0.795 -0.44,0.837 -0.492,0.893 -0.556,0.974 -0.58,1.083 -0.58,1.171 c 0,0.243 0.193,0.426 0.467,0.426 0.103,0 0.243,-0.011 0.363,-0.106 0.024,0.028 0.056,0.06 0.088,0.088 0.045,0 0.077,-0.024 0.081,-0.042 C 0.415,1.502 0.394,1.407 0.394,1.329 0.394,1.291 0.419,1.129 0.419,1.104 0.401,1.097 0.383,1.083 0.359,1.083 0.352,1.083 0.341,1.087 0.331,1.09 0.288,1.164 0.25,1.287 0.204,1.354 c -0.07,0.095 -0.169,0.13 -0.302,0.13 -0.152,0 -0.275,-0.095 -0.275,-0.225 0,-0.126 0.102,-0.186 0.187,-0.225 C -0.123,1.009 -0.046,0.981 0.042,0.953 0.155,0.914 0.239,0.886 0.285,0.862 0.461,0.77 0.535,0.64 0.535,0.461 0.535,0.179 0.281,0 0,0"
           inkscape:connector-curvature="0" />
      </g>
      <g
         transform="matrix(1.25,0,0,-1.25,208.47446,1325.9118)"
         id="g3145">
        <path
           id="path3147"
           style="fill:#231f20;fill-opacity:1;fill-rule:nonzero;stroke:none"
           d="m 0,0 c -0.461,0 -0.711,0.01 -0.774,0.01 -0.049,0 -0.162,0.004 -0.218,0.004 -0.063,0 -0.211,-0.011 -0.373,-0.011 l -0.091,0.004 c -0.007,0.014 -0.007,0.021 -0.007,0.035 0,0.011 0,0.028 0.003,0.042 0.123,0.011 0.211,0.032 0.232,0.05 0.025,0.031 0.043,0.095 0.05,0.232 0,0.07 0.003,0.147 0.003,0.228 0,0.116 -0.003,0.257 -0.003,0.426 l 0,0.239 c -0.004,0.165 -0.085,0.165 -0.257,0.186 -0.004,0.015 -0.007,0.029 -0.007,0.039 0,0.011 0.003,0.035 0.014,0.039 l 0.084,0 c 0.057,0 0.208,-0.004 0.496,-0.004 0.264,0 0.521,-0.003 0.577,-0.003 0.035,0 0.137,-0.004 0.158,-0.004 0.036,0 0.05,-0.003 0.05,-0.035 l 0.021,-0.345 c -0.021,-0.01 -0.025,-0.014 -0.042,-0.014 -0.014,0 -0.025,0 -0.036,0.004 -0.102,0.172 -0.151,0.207 -0.228,0.264 -0.028,0.021 -0.071,0.035 -0.134,0.038 -0.021,0 -0.074,0.004 -0.204,0.004 -0.105,0 -0.158,-0.004 -0.172,-0.004 -0.018,0 -0.014,0 -0.021,-0.059 C -0.883,1.329 -0.886,1.259 -0.886,1.059 l 0,-0.197 0.052,0 c 0.067,0 0.134,0.007 0.173,0.017 0.06,0.018 0.123,0.06 0.154,0.109 0.014,0.018 0.029,0.102 0.036,0.127 0.01,0.007 0.028,0.01 0.049,0.01 0.014,0 0.028,-0.003 0.039,-0.01 -0.004,-0.063 -0.014,-0.179 -0.014,-0.327 0,-0.074 0.007,-0.236 0.007,-0.303 -0.014,-0.01 -0.022,-0.01 -0.043,-0.01 -0.01,0 -0.031,0 -0.042,0.003 -0.014,0.13 -0.035,0.218 -0.144,0.264 -0.06,0.025 -0.109,0.032 -0.169,0.032 -0.032,0 -0.07,-0.004 -0.102,-0.007 l 0,-0.398 c 0,-0.091 0.007,-0.148 0.021,-0.179 0.011,-0.025 0.046,-0.077 0.092,-0.084 0.021,-0.004 0.059,-0.011 0.14,-0.011 l 0.218,0 c 0.057,0 0.138,0.007 0.166,0.025 0.052,0.035 0.193,0.186 0.242,0.327 0.021,0.007 0.032,0.007 0.046,0.007 0.014,0 0.028,-0.004 0.046,-0.011 l 0,-0.401 C 0.081,0.003 0.056,0 0,0"
           inkscape:connector-curvature="0" />
      </g>
      <g
         transform="matrix(1.25,0,0,-1.25,211.24408,1324.105)"
         id="g3149">
        <path
           id="path3151"
           style="fill:#231f20;fill-opacity:1;fill-rule:nonzero;stroke:none"
           d="m 0,0 c -0.155,-0.007 -0.288,-0.092 -0.288,-0.338 l -0.004,-0.781 c 0,-0.031 0.014,-0.253 0.014,-0.337 -0.024,-0.014 -0.049,-0.025 -0.063,-0.025 -0.007,0 -0.021,0.011 -0.039,0.025 l -1.073,1.154 0.011,-0.236 0.004,-0.426 c 0,-0.031 0.007,-0.112 0.014,-0.172 0.007,-0.095 0.035,-0.127 0.077,-0.162 0.053,-0.046 0.141,-0.06 0.204,-0.067 0.007,-0.01 0.01,-0.024 0.01,-0.035 0,-0.003 -0.003,-0.024 -0.014,-0.038 l -0.116,0 c -0.098,0 -0.175,0.003 -0.277,0.003 -0.067,0 -0.162,-0.007 -0.229,-0.007 l -0.049,0 c -0.004,0.011 -0.004,0.028 -0.004,0.035 0,0.007 0,0.021 0.007,0.039 0.078,0.007 0.197,0.042 0.243,0.105 0.017,0.039 0.025,0.109 0.025,0.183 l 0,0.545 c 0,0.088 -0.004,0.134 -0.008,0.218 -0.003,0.071 -0.017,0.124 -0.052,0.166 -0.004,0.01 -0.039,0.045 -0.074,0.081 -0.035,0.028 -0.12,0.052 -0.173,0.074 -0.007,0.014 -0.01,0.031 -0.01,0.035 0,0.01 0.003,0.028 0.01,0.038 l 0.039,0 c 0.032,0 0.197,-0.007 0.324,-0.007 l 0.074,0 c 0.014,-0.007 0.038,-0.021 0.045,-0.031 l 0.795,-0.869 c 0.06,-0.067 0.137,-0.155 0.18,-0.211 l 0,0.626 c 0,0.084 -0.004,0.144 -0.007,0.176 -0.007,0.063 -0.022,0.119 -0.046,0.162 -0.025,0.038 -0.173,0.059 -0.25,0.077 -0.007,0.014 -0.007,0.032 -0.007,0.046 0,0.007 0,0.017 0.004,0.031 l 0.045,0 c 0.074,0 0.194,-0.01 0.268,-0.01 0.183,0 0.239,0.007 0.33,0.007 l 0.06,0 C 0.007,0.06 0.007,0.046 0.007,0.035 0.007,0.028 0.007,0.011 0,0"
           inkscape:connector-curvature="0" />
      </g>
      <g
         transform="matrix(1.25,0,0,-1.25,217.50908,1318.1478)"
         id="g3153">
        <path
           id="path3155"
           style="fill:#231f20;fill-opacity:1;fill-rule:nonzero;stroke:none"
           d="m 0,0 c -0.151,-0.007 -0.288,-0.091 -0.288,-0.338 l 0,-0.78 c 0,-0.032 0.01,-0.254 0.01,-0.338 -0.021,-0.014 -0.049,-0.025 -0.06,-0.025 -0.01,0 -0.021,0.011 -0.042,0.025 l -1.073,1.153 0.015,-0.235 0.003,-0.426 c 0,-0.031 0.007,-0.112 0.011,-0.172 0.01,-0.095 0.038,-0.127 0.077,-0.162 0.056,-0.046 0.144,-0.06 0.204,-0.067 0.007,-0.01 0.01,-0.024 0.01,-0.035 0,-0.003 -0.003,-0.024 -0.01,-0.038 l -0.12,0 c -0.095,0 -0.172,0.003 -0.277,0.003 -0.067,0 -0.159,-0.007 -0.226,-0.007 l -0.049,0 c -0.003,0.011 -0.007,0.028 -0.007,0.035 0,0.007 0,0.021 0.011,0.039 0.074,0.007 0.193,0.042 0.239,0.105 0.021,0.039 0.025,0.109 0.025,0.183 l 0,0.545 c 0,0.088 0,0.134 -0.004,0.218 -0.003,0.071 -0.021,0.124 -0.053,0.166 -0.007,0.01 -0.039,0.045 -0.077,0.081 -0.032,0.028 -0.12,0.052 -0.173,0.074 -0.003,0.014 -0.007,0.031 -0.007,0.035 0,0.01 0.004,0.028 0.007,0.038 l 0.043,0 c 0.028,0 0.193,-0.007 0.32,-0.007 l 0.074,0 c 0.014,-0.007 0.038,-0.021 0.049,-0.031 l 0.795,-0.869 c 0.06,-0.067 0.137,-0.155 0.179,-0.211 l 0,0.626 c 0,0.084 -0.007,0.144 -0.01,0.176 -0.004,0.063 -0.022,0.119 -0.046,0.162 -0.025,0.038 -0.173,0.059 -0.246,0.077 -0.007,0.014 -0.011,0.032 -0.011,0.046 0,0.007 0,0.017 0.007,0.031 l 0.046,0 c 0.074,0 0.193,-0.01 0.267,-0.01 0.179,0 0.239,0.007 0.331,0.007 L 0,0.074 C 0.007,0.06 0.011,0.046 0.011,0.035 0.011,0.028 0.007,0.011 0,0"
           inkscape:connector-curvature="0" />
      </g>
      <g
         transform="matrix(1.25,0,0,-1.25,219.17546,1318.3281)"
         id="g3157">
        <path
           id="path3159"
           style="fill:#231f20;fill-opacity:1;fill-rule:nonzero;stroke:none"
           d="M 0,0 C -0.074,0.098 -0.165,0.158 -0.302,0.158 -0.429,0.158 -0.51,0.102 -0.584,0 c -0.091,-0.116 -0.141,-0.302 -0.141,-0.538 0,-0.232 0.05,-0.415 0.134,-0.531 0.077,-0.113 0.165,-0.169 0.299,-0.169 0.162,0 0.257,0.077 0.331,0.208 0.067,0.116 0.098,0.277 0.098,0.488 C 0.137,-0.292 0.088,-0.116 0,0 M 0.246,-1.111 C 0.099,-1.255 -0.106,-1.34 -0.296,-1.34 c -0.179,0 -0.386,0.077 -0.531,0.218 -0.158,0.151 -0.228,0.355 -0.228,0.58 0,0.215 0.07,0.419 0.228,0.574 0.169,0.162 0.352,0.228 0.535,0.228 0.134,0 0.257,-0.035 0.401,-0.112 0.236,-0.151 0.373,-0.401 0.373,-0.675 0,-0.215 -0.085,-0.43 -0.236,-0.584"
           inkscape:connector-curvature="0" />
      </g>
      <g
         transform="matrix(1.25,0,0,-1.25,222.18246,1318.1566)"
         id="g3161">
        <path
           id="path3163"
           style="fill:#231f20;fill-opacity:1;fill-rule:nonzero;stroke:none"
           d="m 0,0 c -0.137,-0.011 -0.228,-0.084 -0.271,-0.179 l -0.577,-1.284 c 0,0 -0.028,-0.021 -0.045,-0.021 -0.018,0 -0.042,0.021 -0.053,0.06 -0.014,0.045 -0.085,0.225 -0.239,0.576 l -0.183,0.419 c -0.067,0.155 -0.12,0.257 -0.137,0.288 -0.071,0.116 -0.152,0.127 -0.243,0.141 -0.014,0.014 -0.014,0.028 -0.014,0.039 0,0.014 0,0.021 0.01,0.038 l 0.095,0 c 0.106,0 0.197,-0.007 0.278,-0.007 0.095,0 0.254,0.011 0.363,0.011 l 0.059,0 c 0.015,-0.004 0.018,-0.025 0.018,-0.035 0,-0.007 0,-0.032 -0.007,-0.042 C -1.02,-0.004 -1.175,0 -1.175,-0.098 c 0,-0.022 0,-0.06 0.014,-0.085 l 0.377,-0.9 0.32,0.745 c 0.035,0.085 0.039,0.159 0.039,0.197 0,0.085 -0.06,0.123 -0.219,0.141 -0.003,0.011 -0.007,0.025 -0.007,0.035 0,0.014 0.004,0.035 0.007,0.046 l 0.046,0 c 0.07,0 0.141,-0.011 0.302,-0.011 0.025,0 0.138,0.007 0.19,0.007 l 0.11,0 C 0.011,0.063 0.014,0.056 0.014,0.042 0.014,0.032 0.011,0.011 0,0"
           inkscape:connector-curvature="0" />
      </g>
      <g
         transform="matrix(1.25,0,0,-1.25,216.88908,1321.6297)"
         id="g3165">
        <path
           id="path3167"
           style="fill:#231f20;fill-opacity:1;fill-rule:nonzero;stroke:none"
           d="M 0,0 C -0.014,0 -0.024,0.004 -0.046,0.004 -0.077,0.098 -0.12,0.183 -0.158,0.229 -0.218,0.306 -0.281,0.359 -0.44,0.376 -0.475,0.38 -0.559,0.38 -0.587,0.38 l -0.004,-0.672 c 0,-0.106 0,-0.228 0.004,-0.461 0.003,-0.176 0.084,-0.176 0.267,-0.2 0.011,-0.018 0.011,-0.032 0.011,-0.042 0,-0.014 0,-0.025 -0.007,-0.039 l -0.067,0 c -0.109,0 -0.32,0.007 -0.384,0.007 -0.045,0 -0.277,-0.011 -0.39,-0.011 -0.007,0.018 -0.011,0.018 -0.011,0.043 0,0.01 0.004,0.024 0.007,0.038 0.243,0.018 0.268,0.064 0.278,0.141 0.004,0.049 0.004,0.25 0.004,0.454 l 0,0.556 c 0,0.07 0,0.14 -0.011,0.186 -0.046,0 -0.197,0 -0.239,-0.018 C -1.252,0.317 -1.336,0.215 -1.431,0.028 -1.445,0.025 -1.463,0.025 -1.474,0.025 c -0.014,0 -0.024,0.003 -0.035,0.014 l 0,0.39 c 0,0.035 0.007,0.046 0.046,0.046 0.039,0 0.091,-0.004 0.165,-0.004 0.057,0 0.278,-0.003 0.556,-0.003 0.362,0 0.636,0.01 0.703,0.01 0.039,0 0.064,0 0.074,-0.014 C 0.042,0.457 0.039,0.429 0.039,0.408 l 0,-0.39 C 0.028,0.004 0.014,0 0,0"
           inkscape:connector-curvature="0" />
      </g>
      <g
         transform="matrix(1.25,0,0,-1.25,217.96646,1321.4232)"
         id="g3169">
        <path
           id="path3171"
           style="fill:#231f20;fill-opacity:1;fill-rule:nonzero;stroke:none"
           d="M 0,0 -0.004,0 C -0.035,-0.06 -0.091,-0.19 -0.113,-0.246 -0.194,-0.443 -0.222,-0.51 -0.236,-0.538 l 0.454,0 C 0.183,-0.447 0.067,-0.169 0,0 m 0.96,-1.206 -0.119,0 c -0.078,0 -0.166,0.01 -0.257,0.01 -0.144,0 -0.327,-0.01 -0.398,-0.01 -0.007,0.007 -0.01,0.021 -0.01,0.038 0,0.011 0.003,0.025 0.007,0.036 0.148,0.007 0.207,0.031 0.207,0.091 0,0.025 0,0.074 -0.045,0.197 -0.046,0.113 -0.071,0.162 -0.081,0.19 -0.007,0.01 -0.011,0.017 -0.042,0.017 l -0.479,0 c -0.032,-0.038 -0.07,-0.144 -0.112,-0.291 -0.011,-0.039 -0.011,-0.074 -0.011,-0.088 0,-0.05 0.046,-0.106 0.215,-0.109 0.01,-0.018 0.01,-0.032 0.01,-0.043 0,-0.01 0,-0.021 -0.003,-0.035 l -0.043,0 c -0.112,0 -0.144,0.007 -0.263,0.007 -0.078,0 -0.264,-0.007 -0.327,-0.007 -0.004,0.014 -0.007,0.018 -0.007,0.032 0,0.01 0,0.021 0.007,0.039 0.091,0.021 0.175,0.045 0.218,0.112 0.024,0.035 0.105,0.176 0.193,0.394 0.084,0.204 0.186,0.461 0.232,0.566 0.064,0.134 0.085,0.176 0.106,0.222 0.031,0.067 0.067,0.133 0.081,0.158 0.014,0.018 0.045,0.028 0.059,0.028 0.025,0 0.057,-0.014 0.067,-0.031 C 0.179,0.289 0.197,0.26 0.2,0.243 0.288,0.032 0.359,-0.155 0.468,-0.415 0.524,-0.545 0.552,-0.63 0.612,-0.767 0.654,-0.851 0.679,-0.918 0.721,-0.995 0.777,-1.111 0.869,-1.111 0.96,-1.136 0.964,-1.147 0.974,-1.157 0.974,-1.171 0.974,-1.185 0.967,-1.192 0.96,-1.206"
           inkscape:connector-curvature="0" />
      </g>
      <g
         transform="matrix(1.25,0,0,-1.25,222.10333,1322.9311)"
         id="g3173">
        <path
           id="path3175"
           style="fill:#231f20;fill-opacity:1;fill-rule:nonzero;stroke:none"
           d="m 0,0 -0.615,0.007 -0.169,0 c -0.007,0.014 -0.011,0.032 -0.011,0.039 0,0.021 0.004,0.024 0.014,0.038 0.032,0.004 0.113,0 0.151,0.014 0.064,0.029 0.089,0.092 0.089,0.183 l 0,0.887 0,0.207 -0.004,0 -0.324,-0.71 C -0.904,0.587 -0.946,0.503 -0.981,0.419 -1.055,0.253 -1.094,0.141 -1.115,0.074 -1.125,0.046 -1.15,0.046 -1.164,0.046 c -0.021,0 -0.035,0.007 -0.046,0.042 -0.042,0.091 -0.07,0.151 -0.084,0.19 l -0.507,1.115 -0.01,0 0,-0.285 0.01,-0.711 c 0,-0.218 0.113,-0.32 0.285,-0.32 0.007,-0.01 0.014,-0.031 0.014,-0.035 0,-0.01 -0.003,-0.024 -0.01,-0.038 C -1.523,0.004 -1.558,0 -1.59,0 -1.611,0 -1.723,0.011 -1.885,0.011 -1.931,0.011 -2.026,0.007 -2.1,0.007 l -0.102,0 c -0.003,0.014 -0.007,0.025 -0.007,0.039 0,0.003 0.004,0.021 0.007,0.031 0.043,0.011 0.19,0.046 0.222,0.078 0.032,0.031 0.06,0.095 0.06,0.246 l 0,0.359 0,0.422 c -0.004,0.123 -0.018,0.172 -0.078,0.214 -0.024,0.018 -0.119,0.028 -0.2,0.039 -0.007,0.014 -0.011,0.032 -0.011,0.042 0,0.011 0.004,0.025 0.011,0.043 0.06,0 0.165,-0.008 0.271,-0.008 l 0.369,0 c 0.014,-0.01 0.021,-0.017 0.032,-0.038 l 0.453,-1.027 0.081,0.204 c 0.071,0.165 0.173,0.415 0.317,0.682 0.031,0.06 0.07,0.137 0.091,0.176 L -0.007,1.52 C 0,1.505 0.007,1.495 0.007,1.481 0.007,1.467 0.004,1.456 -0.003,1.442 -0.067,1.431 -0.176,1.431 -0.229,1.344 -0.246,1.315 -0.257,1.287 -0.257,1.164 l 0,-0.735 c 0,-0.281 0.071,-0.309 0.102,-0.331 C -0.137,0.088 -0.049,0.077 0,0.077 0.007,0.063 0.011,0.053 0.011,0.039 0.011,0.018 0.004,0.014 0,0"
           inkscape:connector-curvature="0" />
      </g>
      <g
         transform="matrix(1.25,0,0,-1.25,216.84533,1324.6106)"
         id="g3177">
        <path
           id="path3179"
           style="fill:#231f20;fill-opacity:1;fill-rule:nonzero;stroke:none"
           d="M 0,0 C -0.014,0 -0.025,0.004 -0.046,0.004 -0.077,0.098 -0.12,0.183 -0.158,0.229 -0.218,0.306 -0.281,0.359 -0.44,0.376 -0.475,0.38 -0.559,0.38 -0.587,0.38 l -0.004,-0.672 c 0,-0.105 0,-0.228 0.004,-0.461 0.003,-0.175 0.084,-0.175 0.267,-0.2 0.01,-0.018 0.01,-0.032 0.01,-0.042 0,-0.014 0,-0.025 -0.007,-0.039 l -0.066,0 c -0.109,0 -0.32,0.007 -0.384,0.007 -0.046,0 -0.278,-0.011 -0.39,-0.011 -0.007,0.018 -0.011,0.018 -0.011,0.043 0,0.01 0.004,0.024 0.007,0.038 0.243,0.018 0.268,0.064 0.278,0.141 0.004,0.049 0.004,0.25 0.004,0.454 l 0,0.555 c 0,0.071 0,0.141 -0.011,0.187 -0.046,0 -0.197,0 -0.239,-0.018 C -1.252,0.317 -1.337,0.215 -1.431,0.028 -1.446,0.025 -1.463,0.025 -1.474,0.025 c -0.014,0 -0.024,0.003 -0.035,0.014 l 0,0.39 c 0,0.035 0.007,0.046 0.046,0.046 0.039,0 0.091,-0.004 0.165,-0.004 0.056,0 0.278,-0.003 0.556,-0.003 0.362,0 0.636,0.01 0.703,0.01 0.039,0 0.064,0 0.074,-0.014 C 0.042,0.457 0.039,0.429 0.039,0.408 l 0,-0.39 C 0.028,0.004 0.014,0 0,0"
           inkscape:connector-curvature="0" />
      </g>
      <g
         transform="matrix(1.25,0,0,-1.25,219.20608,1324.1138)"
         id="g3181">
        <path
           id="path3183"
           style="fill:#231f20;fill-opacity:1;fill-rule:nonzero;stroke:none"
           d="m 0,0 c -0.137,-0.01 -0.229,-0.084 -0.271,-0.179 l -0.577,-1.284 c 0,0 -0.028,-0.021 -0.045,-0.021 -0.018,0 -0.043,0.021 -0.053,0.06 -0.014,0.045 -0.084,0.225 -0.239,0.576 l -0.183,0.419 c -0.067,0.155 -0.12,0.257 -0.137,0.288 -0.071,0.116 -0.152,0.127 -0.243,0.141 -0.014,0.014 -0.014,0.028 -0.014,0.039 0,0.014 0,0.021 0.011,0.038 l 0.094,0 c 0.106,0 0.197,-0.007 0.278,-0.007 0.095,0 0.253,0.011 0.363,0.011 l 0.059,0 c 0.014,-0.004 0.018,-0.025 0.018,-0.035 0,-0.007 0,-0.032 -0.007,-0.042 C -1.02,-0.003 -1.175,0 -1.175,-0.098 c 0,-0.022 0,-0.06 0.014,-0.085 l 0.377,-0.9 0.32,0.745 c 0.035,0.085 0.038,0.159 0.038,0.197 0,0.085 -0.059,0.124 -0.218,0.141 -0.003,0.011 -0.007,0.025 -0.007,0.035 0,0.014 0.004,0.035 0.007,0.046 l 0.046,0 c 0.071,0 0.141,-0.011 0.303,-0.011 0.024,0 0.137,0.007 0.189,0.007 l 0.11,0 C 0.011,0.063 0.014,0.056 0.014,0.042 0.014,0.032 0.011,0.011 0,0"
           inkscape:connector-curvature="0" />
      </g>
      <g
         transform="matrix(1.25,0,0,-1.25,222.14283,1325.9118)"
         id="g3185">
        <path
           id="path3187"
           style="fill:#231f20;fill-opacity:1;fill-rule:nonzero;stroke:none"
           d="m 0,0 -0.612,0.007 -0.172,0 c -0.007,0.014 -0.007,0.032 -0.007,0.039 0,0.021 0,0.024 0.01,0.038 0.036,0.004 0.113,0 0.155,0.014 0.06,0.029 0.084,0.092 0.084,0.183 l 0,0.887 c 0,0 0.004,0.161 0.004,0.207 l -0.007,0 -0.32,-0.71 C -0.904,0.587 -0.942,0.503 -0.981,0.418 -1.052,0.253 -1.094,0.141 -1.115,0.074 -1.122,0.046 -1.146,0.046 -1.164,0.046 c -0.018,0 -0.032,0.007 -0.046,0.042 -0.038,0.091 -0.067,0.151 -0.081,0.19 l -0.51,1.115 -0.01,0 0,-0.285 0.01,-0.711 c 0.004,-0.218 0.113,-0.32 0.289,-0.32 0.007,-0.01 0.01,-0.031 0.01,-0.035 0,-0.01 0,-0.024 -0.007,-0.039 C -1.523,0.003 -1.555,0 -1.59,0 -1.611,0 -1.72,0.01 -1.882,0.01 -1.931,0.01 -2.026,0.007 -2.096,0.007 l -0.102,0 c -0.007,0.014 -0.011,0.025 -0.011,0.039 0,0.003 0.004,0.021 0.011,0.031 0.039,0.011 0.19,0.046 0.222,0.078 0.028,0.031 0.056,0.095 0.056,0.246 L -1.917,0.76 -1.92,1.182 c -0.004,0.123 -0.014,0.172 -0.078,0.214 -0.024,0.018 -0.119,0.028 -0.197,0.039 -0.01,0.014 -0.014,0.032 -0.014,0.042 0,0.011 0.004,0.025 0.014,0.042 0.057,0 0.166,-0.007 0.268,-0.007 l 0.372,0 c 0.011,-0.01 0.022,-0.017 0.029,-0.038 l 0.453,-1.027 0.085,0.204 c 0.067,0.165 0.172,0.415 0.316,0.682 0.028,0.06 0.071,0.137 0.092,0.176 l 0.573,0.01 C 0,1.505 0.011,1.495 0.011,1.481 0.011,1.467 0.004,1.456 -0.003,1.442 -0.063,1.431 -0.172,1.431 -0.225,1.344 -0.243,1.315 -0.257,1.287 -0.257,1.164 l 0,-0.735 c 0,-0.281 0.071,-0.309 0.106,-0.331 C -0.137,0.088 -0.049,0.077 0,0.077 0.011,0.063 0.014,0.053 0.014,0.039 0.014,0.018 0.007,0.014 0,0"
           inkscape:connector-curvature="0" />
      </g>
      <g
         style="fill:#ffffff"
         transform="matrix(1.25,0,0,-1.25,265.95921,1321.0769)"
         id="g3189">
        <path
           id="path3191"
           style="fill:#ffffff;fill-opacity:1;fill-rule:nonzero;stroke:none"
           d="m 0,0 c 0,1.474 -0.844,2.849 -2.1,3.415 -0.647,0.278 -1.786,0.454 -3.513,0.454 -1.513,0 -3.869,-0.12 -4.907,-0.12 -0.728,0 -1.827,0.081 -2.436,0.081 -0.059,-0.098 -0.1,-0.235 -0.1,-0.313 0,-0.081 0,-0.295 0.06,-0.394 0.373,-0.119 0.981,-0.214 1.375,-0.316 0.333,-0.292 0.412,-0.549 0.53,-1.119 0.058,-0.685 0.098,-1.551 0.098,-3.042 0,-4.143 -0.019,-6.32 -0.079,-6.792 -0.077,-0.591 -0.47,-1.199 -1.119,-1.392 -0.295,-0.06 -0.728,-0.159 -1.137,-0.197 -0.02,-0.099 -0.041,-0.236 -0.041,-0.412 0,-0.158 0.021,-0.179 0.058,-0.278 0.628,0 2.475,0.081 3.182,0.081 1.748,0 3.534,-0.081 4.259,-0.081 l 0.492,0 c 0.06,0.081 0.06,0.218 0.06,0.313 0,0.12 0,0.278 -0.04,0.356 -0.59,0.077 -1.472,0.196 -1.845,0.629 -0.197,0.232 -0.394,0.57 -0.394,1.157 l -0.06,4.319 c 1.178,-0.077 2.436,-0.116 3.123,-0.116 0.903,0 1.668,0.155 2.276,0.352 C -0.864,-2.888 0,-1.509 0,0 m -3.512,0.081 c 0,-1.002 -0.355,-1.885 -1.001,-2.455 -0.413,-0.334 -1.062,-0.531 -2.043,-0.531 -0.412,0 -0.728,0.017 -0.844,0.039 -0.157,0.021 -0.257,0.038 -0.257,0.14 l 0.021,5.751 c 0.236,0.017 0.57,0.098 1.14,0.098 1.334,0 2.159,-0.334 2.551,-1.16 0.273,-0.528 0.433,-1.196 0.433,-1.882 m 21.319,-10.172 c 0,0.099 -0.038,0.335 -0.098,0.412 -0.195,0 -0.999,0.039 -1.294,0.257 -0.099,0.116 -0.255,0.351 -0.335,0.492 -0.256,0.9 -0.548,1.509 -0.844,2.254 -0.413,0.982 -0.981,1.907 -1.452,2.339 -0.178,0.155 -0.786,0.412 -1.474,0.648 -0.313,0.116 -0.568,0.214 -0.804,0.313 0.294,0.059 0.431,0.081 0.804,0.116 1.454,0.179 1.787,0.432 2.159,0.728 0.787,0.591 1.217,1.491 1.217,2.553 0,1.59 -1.02,3.12 -2.453,3.574 C 12.76,3.732 11.92,3.809 10.879,3.809 9.405,3.809 7.344,3.672 6.363,3.672 6.067,3.672 4.358,3.711 3.672,3.711 3.376,3.711 2.631,3.749 2.515,3.749 2.455,3.612 2.416,3.458 2.416,3.376 2.416,3.299 2.436,3.102 2.455,3.025 2.789,2.986 3.398,2.909 3.712,2.849 4.182,2.494 4.34,2.219 4.535,1.787 4.636,1.157 4.653,-0.45 4.653,-3.218 4.653,-5.223 4.674,-7.537 4.576,-8.286 4.518,-8.775 4.34,-9.363 3.77,-9.598 3.517,-9.64 3.044,-9.718 2.652,-9.735 c -0.06,-0.099 -0.099,-0.296 -0.099,-0.394 0,-0.06 0.039,-0.215 0.078,-0.313 0.278,0 3.281,0.056 3.907,0.056 1.256,0 2.318,-0.056 3.437,-0.056 0.038,0.077 0.077,0.214 0.077,0.295 0,0.134 -0.039,0.331 -0.077,0.412 -0.394,0.038 -0.883,0.154 -1.099,0.197 -0.491,0.232 -0.846,0.703 -0.846,1.392 l -0.018,4.534 c 0.155,0.021 0.352,0.021 0.51,0.021 0.253,0 0.549,-0.042 1.039,-0.313 0.727,-0.415 1.082,-0.711 1.553,-1.435 0.628,-0.981 1.041,-2.786 1.237,-4.221 0.058,-0.411 0.214,-0.766 0.589,-0.805 0.156,-0.021 1.197,-0.06 1.943,-0.06 l 2.808,0 c 0.078,0.081 0.116,0.236 0.116,0.334 M 12.115,0.176 c 0,-1.217 -0.825,-2.61 -1.785,-2.846 -0.394,-0.098 -0.887,-0.158 -1.611,-0.158 -0.197,0 -0.492,0 -0.728,0.043 l -0.019,1.667 0,3.612 c 0,0.235 0.058,0.373 0.117,0.432 0.058,0.06 0.414,0.116 0.827,0.116 1.53,0 2.198,-0.133 2.747,-1.058 0.313,-0.531 0.452,-1.14 0.452,-1.808 M 27.859,-10.07 c 0,0.099 -0.021,0.314 -0.058,0.391 -0.295,0.021 -1.099,0.098 -1.452,0.176 -0.315,0.376 -0.533,0.805 -0.669,1.512 -0.019,0.943 -0.04,2.888 -0.04,4.713 l 0,4.829 c 0,0.531 0.216,0.943 0.355,1.062 0.373,0.352 1.119,0.429 1.748,0.51 0.039,0.078 0.058,0.292 0.058,0.373 0,0.116 -0.058,0.275 -0.098,0.313 l -0.57,0 c -0.825,0 -2.749,-0.098 -3.417,-0.098 -0.411,0 -2.335,0.06 -3.199,0.077 l -0.43,0 c -0.06,-0.077 -0.099,-0.155 -0.099,-0.33 0,-0.082 0.017,-0.278 0.039,-0.373 0.963,-0.081 1.392,-0.176 1.531,-0.278 0.236,-0.176 0.568,-0.609 0.649,-1.667 0.018,-0.373 0.037,-1.179 0.056,-2.987 0.022,-0.981 0.041,-2.352 0.041,-3.492 0,-0.57 -0.041,-1.847 -0.06,-2.532 -0.037,-0.472 -0.137,-0.922 -0.272,-1.179 -0.236,-0.197 -0.473,-0.548 -1.907,-0.647 -0.038,-0.077 -0.06,-0.334 -0.06,-0.415 0,-0.154 0.041,-0.232 0.041,-0.33 l 0.334,0 c 0.786,0 2.749,0.098 3.769,0.098 0.295,0 2.335,-0.06 2.984,-0.06 l 0.649,0 c 0.056,0.099 0.077,0.257 0.077,0.334 M 47.271,3.535 c 0,0.077 -0.022,0.214 -0.06,0.274 l -0.454,0 c -0.981,0 -1.607,-0.038 -3.376,-0.038 -0.609,0 -1.513,0.038 -1.727,0.038 l -0.51,0 c -0.06,-0.038 -0.081,-0.257 -0.081,-0.334 0,-0.099 0.021,-0.253 0.102,-0.334 0.313,-0.099 1.509,-0.232 2.022,-0.57 0.352,-0.411 0.507,-1.234 0.566,-2.001 0.022,-0.292 0.043,-0.587 0.043,-1.393 l 0,-4.104 c 0,-0.472 -0.021,-0.626 -0.043,-0.845 -0.33,0.373 -0.805,1.08 -1.589,1.963 l -6.549,7.267 c -0.06,0.077 -0.176,0.175 -0.296,0.253 -0.156,0 -0.432,0.021 -0.587,0.021 -1.259,0 -3.535,0.056 -3.869,0.056 -0.039,-0.077 -0.077,-0.193 -0.077,-0.271 0,-0.042 0.038,-0.316 0.056,-0.376 0.295,-0.077 0.944,-0.176 1.474,-0.746 0.316,-0.351 0.865,-0.844 1.041,-1.238 0.059,-0.137 0.079,-0.351 0.079,-0.626 0,-1.02 -0.058,-2.455 -0.058,-3.826 l 0,-3.989 c 0,-0.647 -0.06,-1.157 -0.12,-1.491 -0.411,-0.433 -1.039,-0.746 -2.061,-0.999 -0.039,-0.102 -0.077,-0.257 -0.077,-0.355 0,-0.06 0.017,-0.257 0.058,-0.275 l 0.373,0 c 0.392,0 1.296,0.06 1.885,0.06 0.863,0 1.451,-0.06 2.256,-0.06 l 1.172,0 c 0.077,0.018 0.098,0.257 0.098,0.334 0,0.078 -0.021,0.236 -0.059,0.314 -0.682,0.175 -1.681,0.334 -2.349,1.217 -0.135,0.295 -0.255,1.747 -0.255,2.437 0,0.626 -0.021,1.487 -0.021,2.648 0,1.551 0.021,2.905 0.041,3.591 0.117,-0.137 0.255,-0.313 0.353,-0.429 l 9.064,-10.193 c 0.098,-0.095 0.45,-0.116 0.549,-0.116 0.098,0 0.158,0 0.235,0.039 0.039,0.099 0.176,0.415 0.176,0.883 0,0.57 -0.021,1.161 -0.021,1.452 l 0,8.188 c 0,2.455 1.161,3.141 2.515,3.201 0.059,0.099 0.081,0.274 0.081,0.373 M 62.554,-7.674 c -0.059,0.176 -0.218,0.471 -0.668,0.471 -0.04,0 -0.1,-0.021 -0.137,-0.021 -1.18,-1.671 -2.476,-2.297 -3.948,-2.297 -2.042,0 -3.494,1.375 -3.966,2.592 -0.256,0.648 -0.608,2.061 -0.608,3.574 0,1.431 0.216,2.592 0.589,3.436 0.863,2.276 2.119,2.983 3.652,2.983 1.277,0 2.336,-0.729 3.141,-1.766 0.334,-0.454 0.686,-1.337 0.999,-2.378 0.081,-0.017 0.257,-0.056 0.433,-0.056 0.118,0 0.394,0.095 0.471,0.176 -0.017,0.214 -0.214,1.727 -0.214,2.198 0,0.587 0.156,1.551 0.156,1.924 -0.118,0.12 -0.51,0.197 -0.765,0.214 C 61.394,3.162 61.295,2.909 61.021,2.571 59.922,3.359 58.9,3.967 56.663,3.967 c -2.061,0 -3.693,-0.706 -4.929,-1.945 -1.354,-1.333 -2.1,-3.179 -2.1,-5.536 0,-2.511 1.06,-4.575 2.768,-5.87 1.082,-0.784 2.671,-1.315 4.574,-1.315 2.395,0 4.143,0.904 5.026,2.099 0.352,0.475 0.392,0.592 0.552,0.926 m 16.608,0.686 c 0,0.274 0,0.393 -0.021,0.569 -0.098,0.06 -0.137,0.06 -0.295,0.06 -0.137,0 -0.292,0 -0.433,-0.039 -0.664,-1.512 -1.628,-2.69 -2.157,-3.003 -0.294,-0.18 -0.746,-0.218 -1.474,-0.218 l -1.608,0 c -0.627,0 -1.12,0.059 -1.296,0.098 -0.295,0.06 -0.608,0.531 -0.745,0.844 -0.139,0.334 -0.218,0.334 -0.218,1.238 l 0,4.298 0.728,0 c 0.195,0 0.668,-0.038 1.196,-0.274 0.492,-0.218 0.689,-0.51 0.884,-0.827 0.178,-0.27 0.294,-1.354 0.333,-1.628 0.1,-0.056 0.355,-0.077 0.513,-0.077 0.155,0 0.253,0.021 0.39,0.098 0,0.531 -0.117,1.963 -0.117,2.75 0,0.982 0.137,2.336 0.195,3.039 -0.078,0.043 -0.195,0.081 -0.391,0.081 -0.137,0 -0.393,0 -0.51,-0.06 -0.059,-0.274 -0.276,-1.097 -0.316,-1.157 -0.292,-0.492 -0.806,-0.865 -1.333,-1.023 -0.354,-0.095 -0.865,-0.155 -1.14,-0.155 l -0.411,0 0,1.825 c 0,1.886 0.038,2.494 0.058,2.849 0.019,0.232 0.058,0.489 0.079,0.665 0.176,0.021 0.274,0.039 1.178,0.039 1.136,0 1.669,-0.018 1.845,-0.018 0.55,-0.042 0.962,-0.158 1.257,-0.394 0.746,-0.57 1.316,-1.47 1.884,-2.434 0.118,-0.038 0.315,-0.038 0.413,-0.038 0.118,0 0.137,0.038 0.295,0.116 0,1.199 -0.08,2.75 -0.119,3.239 -0.021,0.197 -0.058,0.257 -0.45,0.257 -0.159,0 -0.904,0.039 -1.689,0.039 -1.118,0 -1.572,-0.022 -3.281,-0.022 -0.922,0 -2.826,-0.017 -3.631,-0.017 -1.177,0 -2.179,0.039 -2.689,0.039 l -0.669,0 C 65.358,3.693 65.321,3.535 65.321,3.458 c 0,-0.099 0.037,-0.317 0.096,-0.394 0.236,-0.078 1.159,-0.06 1.435,-0.215 0.275,-0.236 0.528,-0.334 0.706,-1.277 0.04,-0.415 0.059,-1.551 0.059,-2.455 l 0,-4.044 c 0,-0.823 -0.019,-2.023 -0.04,-2.512 -0.039,-0.766 -0.313,-1.688 -0.429,-1.867 -0.18,-0.138 -0.985,-0.254 -1.769,-0.292 -0.058,-0.12 -0.099,-0.317 -0.099,-0.433 0,-0.116 0.041,-0.257 0.099,-0.355 l 0.647,0 c 0.629,0 2.945,0.06 3.477,0.06 0.49,0 1.433,-0.039 2.571,-0.039 0.627,0 2.474,-0.12 6.44,-0.12 0.156,0 0.332,-0.017 0.529,0.043 0.06,0.098 0.06,0.137 0.079,0.313 0.04,0.394 0.04,1.551 0.04,3.141 m 16.921,6.38 0,4.006 c 0,0.295 -0.116,0.373 -0.411,0.373 -0.589,0 -3.689,-0.078 -6.83,-0.078 -2.436,0 -4.458,0.039 -5.557,0.039 l -1.455,0 c -0.253,0 -0.332,-0.06 -0.332,-0.334 l 0,-3.75 c 0.079,-0.059 0.214,-0.081 0.315,-0.081 0.077,0 0.353,0 0.431,0.043 0.882,1.783 1.709,2.747 2.75,3.278 0.587,0.056 1.744,0.077 2.059,0.077 0.02,-0.214 0.041,-0.904 0.058,-1.727 0.021,-1.414 0.021,-2.022 0.021,-5.36 0,-2.888 -0.021,-4.182 -0.059,-4.495 -0.078,-0.549 0.021,-0.964 -2.336,-1.062 -0.06,-0.137 -0.06,-0.292 -0.06,-0.45 0,-0.078 0,-0.236 0.021,-0.313 l 0.764,0 c 0.728,0 2.435,0.077 3.144,0.077 0.568,0 2.395,-0.06 3.591,-0.06 l 0.549,0 c 0.059,0.099 0.059,0.313 0.059,0.412 0,0.119 -0.019,0.257 -0.077,0.355 -0.218,0 -1.474,-0.039 -2.022,0.373 -0.06,0.214 -0.178,0.784 -0.178,1.473 -0.019,2.118 -0.04,2.923 -0.04,4.337 0,1.826 0.021,3.064 0.021,6.461 0.274,0 0.904,0.018 1.491,0 1.219,-0.334 1.808,-0.788 2.337,-1.491 0.333,-0.454 0.688,-1.217 1.04,-2.142 0.119,-0.039 0.218,-0.039 0.334,-0.039 0.079,0 0.334,0.039 0.372,0.078 m 17.258,-2.473 c 0,2.747 -1.218,4.847 -3.496,6.106 -1.215,0.668 -2.433,1.002 -3.729,1.002 -2.865,0 -5.457,-1.709 -6.618,-3.654 -0.746,-1.217 -1.135,-2.55 -1.135,-3.964 0,-2.258 1.099,-4.477 2.806,-5.754 1.297,-0.943 2.768,-1.41 4.477,-1.41 1.043,0 2.022,0.193 2.984,0.566 1.08,0.415 2.002,1.062 2.728,1.867 1.277,1.393 1.983,3.18 1.983,5.241 m -3.553,0.373 c 0,-2.965 -0.825,-5.578 -1.943,-6.5 -0.569,-0.471 -1.277,-0.707 -2.082,-0.707 -1.097,0 -2.062,0.433 -2.609,1.315 -0.746,1.14 -1.16,3.261 -1.16,5.104 0,2.733 0.706,4.871 1.963,5.912 0.668,0.549 1.354,0.764 2.042,0.764 1.062,0 2.082,-0.51 2.67,-1.355 0.746,-1.019 1.119,-2.493 1.119,-4.533 m 22.497,6.243 c 0,0.077 -0.016,0.214 -0.058,0.274 l -0.45,0 c -0.983,0 -1.608,-0.038 -3.378,-0.038 -0.609,0 -1.513,0.038 -1.727,0.038 l -0.51,0 c -0.059,-0.038 -0.079,-0.257 -0.079,-0.334 0,-0.099 0.02,-0.253 0.097,-0.334 0.317,-0.099 1.513,-0.232 2.022,-0.57 0.355,-0.411 0.512,-1.234 0.571,-2.001 0.018,-0.292 0.038,-0.587 0.038,-1.393 l 0,-4.104 c 0,-0.472 -0.02,-0.626 -0.038,-0.845 -0.335,0.373 -0.805,1.08 -1.592,1.963 l -6.556,7.267 c -0.058,0.077 -0.177,0.175 -0.294,0.253 -0.158,0 -0.432,0.021 -0.587,0.021 -1.26,0 -3.535,0.056 -3.87,0.056 -0.038,-0.077 -0.079,-0.193 -0.079,-0.271 0,-0.042 0.041,-0.316 0.058,-0.376 0.295,-0.077 0.943,-0.176 1.475,-0.746 0.313,-0.351 0.862,-0.844 1.039,-1.238 0.059,-0.137 0.079,-0.351 0.079,-0.626 0,-1.02 -0.06,-2.455 -0.06,-3.826 l 0,-3.989 c 0,-0.647 -0.057,-1.157 -0.117,-1.491 -0.41,-0.433 -1.041,-0.746 -2.06,-0.999 -0.041,-0.102 -0.077,-0.257 -0.077,-0.355 0,-0.06 0.016,-0.257 0.056,-0.275 l 0.372,0 c 0.395,0 1.299,0.06 1.886,0.06 0.864,0 1.453,-0.06 2.258,-0.06 l 1.178,0 c 0.077,0.018 0.099,0.257 0.099,0.334 0,0.078 -0.022,0.236 -0.06,0.314 -0.686,0.175 -1.689,0.334 -2.357,1.217 -0.137,0.295 -0.254,1.747 -0.254,2.437 0,0.626 -0.02,1.487 -0.02,2.648 0,1.551 0.02,2.905 0.04,3.591 0.119,-0.137 0.256,-0.313 0.353,-0.429 l 9.071,-10.193 c 0.097,-0.095 0.45,-0.116 0.549,-0.116 0.097,0 0.156,0 0.236,0.039 0.039,0.099 0.176,0.415 0.176,0.883 0,0.57 -0.02,1.161 -0.02,1.452 l 0,8.188 c 0,2.455 1.158,3.141 2.512,3.201 0.062,0.099 0.078,0.274 0.078,0.373"
           inkscape:connector-curvature="0" />
      </g>
      <g
         style="fill:#ffffff"
         transform="matrix(1.25,0,0,-1.25,268.73333,1344.1781)"
         id="g3193">
        <path
           id="path3195"
           style="fill:#ffffff;fill-opacity:1;fill-rule:nonzero;stroke:none"
           d="m 0,0 c 0,0.077 -0.039,0.197 -0.097,0.253 l -0.568,0 c -0.61,0 -1.435,-0.038 -2.142,-0.038 -0.784,0 -1.667,0.038 -2.238,0.038 l -0.706,0 C -5.81,0.137 -5.831,0.099 -5.831,0 c 0,-0.081 0.021,-0.158 0.059,-0.257 0.081,0 1.513,-0.017 1.768,-0.373 0.216,-0.295 0.687,-1.02 0.765,-1.452 0.038,-0.197 0.158,-1.002 0.158,-2.16 0,-1.667 0,-2.785 -0.019,-3.376 -0.041,-1.101 -0.159,-1.963 -0.356,-2.61 -0.548,-1.709 -1.823,-2.553 -3.846,-2.553 -0.865,0 -1.61,0.175 -2.298,0.492 -1.277,0.626 -1.885,1.826 -1.903,2.473 l -0.1,5.887 -0.018,2.396 c 0,0.453 0.568,0.865 0.764,1.1 0.158,0.078 1.021,0.159 1.512,0.197 0.06,0.116 0.098,0.176 0.098,0.275 0,0.098 -0.058,0.197 -0.137,0.253 l -0.745,-0.018 c -0.728,-0.021 -1.689,-0.038 -2.297,-0.038 -0.943,0 -1.671,0.017 -2.258,0.017 l -0.823,0 c -0.081,-0.056 -0.1,-0.176 -0.1,-0.274 0,-0.099 0.019,-0.176 0.079,-0.236 0.626,-0.077 1.039,-0.137 1.315,-0.193 0.333,-0.197 0.57,-0.531 0.688,-0.865 0.019,-0.257 0.058,-0.883 0.058,-2.121 l 0,-4.713 c 0,-1.217 0.06,-2.079 0.197,-2.631 0.253,-1.02 0.803,-1.826 1.707,-2.413 0.962,-0.629 2.16,-0.942 3.593,-0.942 1.316,0 2.434,0.274 3.377,0.805 0.981,0.528 1.589,1.393 1.943,2.61 0.195,0.724 0.315,1.512 0.315,2.335 l 0,3.77 c 0,0.707 0.038,1.59 0.038,1.945 0.021,1.059 0.296,1.689 0.591,2.16 0.313,0.098 0.588,0.155 1.629,0.274 C -0.039,-0.158 0,-0.098 0,0 m 18.18,0.099 c 0,0.077 -0.019,0.137 -0.06,0.193 l -0.45,0 c -0.981,0 -1.414,-0.039 -3.179,-0.039 -0.611,0 -1.513,0.039 -1.727,0.039 l -0.514,0 C 12.194,0.253 12.173,0.116 12.173,0.039 c 0,-0.099 0.021,-0.137 0.098,-0.215 0.315,-0.098 1.513,-0.236 2.023,-0.57 0.351,-0.415 0.51,-1.238 0.569,-2.004 0.018,-0.292 0.039,-0.588 0.039,-1.393 l 0,-5.832 c 0,-0.471 -0.021,-0.629 -0.039,-0.844 -0.334,0.373 -0.903,1.101 -1.668,2.005 L 5.694,-0.06 C 5.634,0.021 5.518,0.116 5.399,0.197 5.242,0.197 5.047,0.215 4.889,0.215 3.633,0.215 2.534,0.274 2.198,0.274 2.161,0.197 2.142,0.158 2.142,0.077 c 0,-0.038 0.019,-0.197 0.037,-0.253 0.295,-0.081 1.159,-0.179 1.514,-0.552 0.313,-0.352 0.784,-0.763 0.96,-1.157 0.06,-0.137 0.081,-0.352 0.081,-0.63 0,-1.02 -0.06,-2.884 -0.06,-4.259 l 0,-4.182 c 0,-0.647 -0.059,-1.157 -0.117,-1.491 -0.414,-0.433 -1.042,-0.746 -2.063,-1.003 -0.039,-0.098 -0.078,-0.137 -0.078,-0.235 0,-0.06 0.018,-0.176 0.058,-0.194 l 0.373,0 c 0.392,0 1.296,0.057 1.887,0.057 0.862,0 1.254,-0.057 2.058,-0.057 l 1.181,0 c 0.078,0.018 0.095,0.176 0.095,0.254 0,0.077 -0.017,0.119 -0.058,0.197 -0.685,0.175 -1.686,0.334 -2.354,1.217 -0.138,0.295 -0.257,1.786 -0.257,2.472 0,0.63 -0.019,1.65 -0.019,2.807 0,1.551 0.019,3.693 0.04,4.379 0.118,-0.138 0.295,-0.352 0.431,-0.51 l 9.306,-10.897 c 0.097,-0.098 0.137,-0.116 0.238,-0.116 0.094,0 0.036,0 0.116,0.039 0.038,0.099 0.098,0.412 0.098,0.883 0,0.57 -0.019,1.157 -0.019,1.452 l 0,8.343 c 0,2.455 1.159,3.145 2.513,3.201 C 18.161,-0.06 18.18,0 18.18,0.099 m 8.874,-13.724 c 0,0.098 -0.018,0.197 -0.058,0.274 -0.296,0.021 -1.099,0.098 -1.454,0.176 -0.314,0.373 -0.528,0.805 -0.669,1.512 -0.017,0.943 -0.037,3.081 -0.037,4.91 l 0,4.984 c 0,0.531 0.215,0.946 0.354,1.062 0.373,0.352 1.118,0.433 1.746,0.51 0.041,0.077 0.06,0.176 0.06,0.253 0,0.12 -0.06,0.197 -0.1,0.236 l -0.568,0 c -0.825,0 -2.003,-0.095 -2.672,-0.095 -0.409,0 -1.589,0.056 -2.451,0.077 l -0.433,0 C 20.713,0.197 20.674,0.197 20.674,0.021 c 0,-0.081 0.019,-0.158 0.039,-0.257 0.961,-0.08 1.394,-0.176 1.529,-0.274 0.238,-0.179 0.572,-0.609 0.651,-1.671 0.018,-0.372 0.039,-1.375 0.058,-3.179 0.019,-0.981 0.041,-2.318 0.041,-3.454 0,-0.573 -0.041,-2.044 -0.06,-2.729 -0.039,-0.472 -0.137,-0.925 -0.276,-1.178 -0.234,-0.197 -0.47,-0.549 -1.903,-0.651 -0.04,-0.078 -0.06,-0.215 -0.06,-0.292 0,-0.158 0.041,-0.158 0.041,-0.257 l 0.332,0 c 0.786,0 2.003,0.099 3.023,0.099 0.295,0 1.59,-0.057 2.239,-0.057 l 0.649,0 c 0.059,0.095 0.077,0.176 0.077,0.254 M 44.246,0.056 c 0,0.081 -0.021,0.197 -0.099,0.218 l -0.668,0 c -0.471,0 -1.217,-0.038 -1.551,-0.038 -1.59,0 -2.159,0.098 -2.395,0.098 l -0.352,0 C 39.139,0.236 39.079,0.176 39.079,0.077 c 0,-0.077 0.042,-0.137 0.042,-0.214 0.489,-0.06 0.922,-0.158 1.354,-0.296 0.236,-0.235 0.493,-0.707 0.493,-1.238 0,-0.193 -0.197,-1.118 -0.475,-1.786 l -3.158,-7.773 -3.88,9.837 c 0.058,0.468 0.313,0.922 0.645,1.098 0.332,0.038 0.741,0.158 1.272,0.158 0.039,0.077 0.077,0.193 0.077,0.274 0,0.078 -0.017,0.197 -0.098,0.215 l -0.492,0 c -0.602,0 -1.523,-0.078 -2.564,-0.078 -0.451,0 -1.334,0.039 -2.199,0.039 l -0.765,0 c -0.04,-0.077 -0.077,-0.116 -0.077,-0.236 0,-0.116 0.019,-0.158 0.058,-0.235 0.549,-0.137 1.08,-0.352 1.649,-0.665 0.373,-0.552 1.179,-2.536 1.611,-3.573 l 1.625,-3.929 c 1.351,-3.261 2.156,-5.437 2.255,-5.81 0.098,-0.06 0,-0.116 0.176,-0.116 0.176,0 0.158,0.035 0.197,0.133 l 5.064,12.173 c 0.176,0.433 0.451,0.844 0.707,1.122 0.313,0.352 0.961,0.489 1.569,0.626 0.021,0.077 0.081,0.158 0.081,0.253 M 58.781,-10.66 c 0,0.274 0,0.394 -0.018,0.569 -0.099,0.06 -0.137,0.06 -0.295,0.06 -0.138,0 -0.117,0 -0.255,-0.042 -0.433,-1.432 -1.177,-2.494 -2.023,-3.004 -0.294,-0.176 -0.825,-0.214 -1.667,-0.214 l -2.2,0 c -0.686,0.021 -1.118,0.059 -1.296,0.098 -0.294,0.056 -0.609,0.531 -0.744,0.844 -0.141,0.334 -0.218,0.451 -0.218,1.354 l 0,4.478 0.629,0 c 0.628,0 1.138,-0.042 1.668,-0.278 0.492,-0.215 0.865,-0.528 1.06,-0.841 0.178,-0.278 0.237,-1.357 0.276,-1.632 0.097,-0.059 0.157,-0.077 0.313,-0.077 0.157,0 0.176,0.018 0.315,0.098 0,0.528 -0.118,1.963 -0.118,2.747 0,0.982 0.137,2.181 0.195,2.888 -0.077,0.039 -0.117,0.077 -0.313,0.077 -0.139,0 -0.195,0 -0.314,-0.056 -0.058,-0.278 -0.217,-1.101 -0.254,-1.161 -0.295,-0.488 -0.984,-0.882 -1.512,-1.041 -0.355,-0.098 -0.865,-0.158 -1.611,-0.158 l -0.313,0 0,1.927 c 0,1.882 0.039,2.649 0.056,3.004 0.021,0.236 0.06,0.489 0.081,0.665 0.176,0.021 0.746,0.039 1.65,0.039 1.136,0 1.982,-0.018 2.159,-0.018 0.549,-0.039 0.961,-0.158 1.256,-0.394 0.962,-0.746 1.217,-1.238 1.748,-2.434 0.118,-0.039 0.135,-0.039 0.236,-0.039 0.116,0 0.137,0.039 0.292,0.117 0,1.199 -0.078,2.553 -0.117,3.045 -0.021,0.197 -0.059,0.254 -0.451,0.254 -0.157,0 -0.903,0.038 -1.687,0.038 -1.122,0 -1.572,-0.017 -3.281,-0.017 -0.922,0 -2.55,-0.021 -3.356,-0.021 -1.178,0 -1.435,0.038 -1.947,0.038 l -0.671,0 c -0.06,-0.077 -0.101,-0.154 -0.101,-0.232 0,-0.102 0.041,-0.197 0.101,-0.278 0.237,-0.077 1.166,-0.059 1.44,-0.214 0.274,-0.236 0.529,-0.296 0.707,-1.238 0.039,-0.412 0.06,-1.748 0.06,-2.652 l 0,-4.041 c 0,-0.823 -0.021,-2.181 -0.041,-2.67 -0.04,-0.767 -0.315,-1.73 -0.432,-1.906 -0.178,-0.137 -0.983,-0.254 -1.775,-0.292 -0.06,-0.12 -0.1,-0.197 -0.1,-0.317 0,-0.116 0.04,-0.175 0.1,-0.274 l 0.653,0 c 0.631,0 2.203,0.06 2.731,0.06 0.492,0 1.159,-0.039 2.298,-0.039 0.628,0 2.473,-0.12 6.44,-0.12 0.157,0 0.333,-0.021 0.529,0.039 0.06,0.099 0.06,0.137 0.08,0.313 0.037,0.394 0.037,1.358 0.037,2.948 m 16.472,-2.983 c 0,0.095 -0.037,0.215 -0.097,0.292 -0.196,0 -1.002,0.039 -1.297,0.257 -0.097,0.116 -0.254,0.351 -0.333,0.488 -0.255,0.904 -0.529,1.71 -0.825,2.455 -0.411,0.982 -0.981,1.907 -1.452,2.336 -0.176,0.158 -0.726,0.415 -1.414,0.647 -0.313,0.12 -0.57,0.218 -0.805,0.317 0.295,0.056 0.432,0.077 0.805,0.116 1.277,0.158 1.709,0.432 2.082,0.728 0.784,0.587 1.295,1.47 1.295,2.532 0,1.59 -1.021,3.102 -2.454,3.552 -0.471,0.138 -1.317,0.215 -2.356,0.215 -1.472,0 -2.573,-0.134 -3.554,-0.134 -0.292,0 -1.256,0.039 -1.942,0.039 -0.295,0 -1.041,0.039 -1.159,0.039 -0.058,-0.137 -0.098,-0.18 -0.098,-0.257 0,-0.077 0.019,-0.193 0.04,-0.274 0.333,-0.039 0.941,-0.117 1.256,-0.176 0.471,-0.352 0.629,-0.63 0.825,-1.062 0.096,-0.626 0.117,-2.396 0.117,-5.164 0,-2.001 0.02,-4.516 -0.08,-5.261 -0.057,-0.489 -0.233,-1.076 -0.804,-1.312 -0.255,-0.042 -0.726,-0.12 -1.119,-0.141 -0.059,-0.095 -0.1,-0.176 -0.1,-0.274 0,-0.06 0.041,-0.137 0.081,-0.236 0.274,0 2.532,0.06 3.16,0.06 1.258,0 1.571,-0.06 2.689,-0.06 0.041,0.081 0.081,0.137 0.081,0.218 0,0.137 -0.04,0.215 -0.081,0.292 -0.39,0.039 -0.883,0.158 -1.099,0.197 -0.491,0.236 -0.842,0.707 -0.842,1.396 l -0.021,4.907 c 0.158,0.021 0.726,0.021 0.882,0.021 0.531,0 1.063,-0.042 1.571,-0.278 0.747,-0.33 1.454,-0.862 1.925,-1.59 0.628,-0.981 1.041,-2.845 1.238,-4.276 0.057,-0.416 0.215,-0.767 0.588,-0.806 0.156,-0.021 0.394,-0.06 1.139,-0.06 l 2.04,0 c 0.081,0.078 0.118,0.155 0.118,0.257 m -4.122,10.404 c 0,-1.256 -1.001,-2.67 -2.158,-2.927 -0.473,-0.098 -1.16,-0.158 -2.043,-0.158 -0.236,0 -0.904,0 -1.198,0.043 l -0.019,1.726 0,3.711 c 0,0.257 0.06,0.394 0.137,0.45 0.079,0.06 0.883,0.12 1.374,0.12 1.844,0 2.69,-0.176 3.358,-1.14 0.373,-0.531 0.549,-1.139 0.549,-1.825 m 17.373,-6.774 c 0,1.572 -0.703,2.648 -2.218,3.454 -0.413,0.235 -1.137,0.492 -2.178,0.787 -1.198,0.335 -2.199,0.725 -2.847,1.08 -0.431,0.236 -1.159,0.883 -1.159,2.139 0,1.255 1.278,2.296 2.768,2.296 1.178,0 2.122,-0.587 2.69,-1.371 0.493,-0.69 0.669,-1.003 1.217,-2.241 0.06,-0.017 0.137,-0.039 0.197,-0.039 0.176,0 0.334,0.099 0.433,0.198 -0.06,0.492 -0.157,1.178 -0.157,1.765 0,0.51 0.118,1.178 0.178,1.533 -0.16,0.236 -0.336,0.275 -0.591,0.275 -0.274,-0.179 -0.531,-0.45 -0.767,-0.707 -1.294,1.041 -2.354,1.217 -3.336,1.217 -2.414,0 -4.141,-1.611 -4.141,-3.749 0,-0.729 0.253,-1.435 0.724,-2.16 0.433,-0.608 1.062,-1.08 1.907,-1.435 0.568,-0.232 3.119,-1.002 3.473,-1.14 1.57,-0.608 2.161,-1.136 2.161,-2.528 0,-0.69 -0.295,-1.298 -0.865,-1.984 -0.51,-0.63 -1.316,-0.925 -2.179,-0.925 -0.923,0 -2.513,0.394 -3.299,1.452 -0.471,0.609 -1.138,1.886 -1.335,2.652 -0.137,0.039 -0.137,0.039 -0.274,0.039 -0.118,0 -0.257,-0.039 -0.373,-0.116 0,-0.257 0.079,-1.551 0.079,-1.945 0,-0.96 -0.178,-1.431 -0.216,-1.748 0.058,-0.197 0.392,-0.394 0.629,-0.394 0.41,0.355 0.841,0.63 0.982,0.63 0.116,0 0.292,-0.056 0.467,-0.176 1.277,-0.827 2.339,-0.981 3.282,-0.981 2.768,0 4.748,1.392 4.748,4.122 m 9.7,-3.612 c 0,0.098 -0.021,0.197 -0.059,0.274 -0.292,0.021 -1.099,0.098 -1.453,0.176 -0.313,0.373 -0.529,0.805 -0.666,1.512 -0.02,0.943 -0.041,3.081 -0.041,4.91 l 0,4.984 c 0,0.531 0.218,0.946 0.354,1.062 0.372,0.352 1.12,0.433 1.746,0.51 0.04,0.077 0.06,0.176 0.06,0.253 0,0.12 -0.06,0.197 -0.097,0.236 l -0.568,0 c -0.826,0 -2.005,-0.095 -2.673,-0.095 -0.412,0 -1.59,0.056 -2.453,0.077 l -0.433,0 C 91.863,0.197 91.824,0.197 91.824,0.021 c 0,-0.081 0.02,-0.158 0.039,-0.257 0.964,-0.08 1.395,-0.176 1.532,-0.274 0.235,-0.179 0.568,-0.609 0.649,-1.671 0.019,-0.372 0.036,-1.375 0.056,-3.179 0.021,-0.981 0.04,-2.318 0.04,-3.454 0,-0.573 -0.04,-2.044 -0.06,-2.729 -0.036,-0.472 -0.137,-0.925 -0.272,-1.178 -0.238,-0.197 -0.473,-0.549 -1.906,-0.651 -0.039,-0.078 -0.058,-0.215 -0.058,-0.292 0,-0.158 0.036,-0.158 0.036,-0.257 l 0.336,0 c 0.787,0 2.003,0.099 3.023,0.099 0.296,0 1.589,-0.057 2.241,-0.057 l 0.645,0 c 0.058,0.095 0.079,0.176 0.079,0.254 m 16.317,9.696 0,3.809 c 0,0.296 -0.12,0.373 -0.414,0.373 -0.589,0 -3.299,-0.077 -6.44,-0.077 -2.436,0 -4.064,0.039 -5.164,0.039 l -1.452,0 c -0.254,0 -0.335,-0.057 -0.335,-0.335 l 0,-3.552 c 0.081,-0.06 0.141,-0.077 0.234,-0.077 0.082,0 0.159,0 0.238,0.039 0.766,1.709 1.158,2.609 2.474,3.277 0.588,0.06 2.649,0.078 2.965,0.078 0.019,-0.215 0.039,-0.901 0.059,-1.727 0.02,-1.414 0.02,-2.177 0.02,-5.519 0,-2.884 -0.02,-4.375 -0.06,-4.688 -0.077,-0.552 0.02,-0.964 -2.335,-1.062 -0.061,-0.137 -0.061,-0.176 -0.061,-0.334 0,-0.077 0,-0.155 0.021,-0.236 l 0.765,0 c 0.726,0 1.688,0.081 2.396,0.081 0.569,0 1.649,-0.06 2.847,-0.06 l 0.549,0 c 0.059,0.099 0.059,0.197 0.059,0.292 0,0.12 -0.02,0.18 -0.079,0.278 -0.216,0 -1.471,-0.042 -2.022,0.373 -0.06,0.214 -0.179,0.784 -0.179,1.47 -0.016,2.121 -0.037,3.123 -0.037,4.537 0,1.825 0.021,3.218 0.021,6.616 0.274,0 1.727,0.018 2.318,0 1.214,-0.334 1.685,-0.785 2.215,-1.491 0.472,-0.63 0.59,-1.2 0.882,-2.142 0.121,-0.039 0.178,-0.039 0.297,-0.039 0.076,0 0.177,0.039 0.218,0.077 m 15.86,4.045 c 0,0.12 -0.078,0.158 -0.117,0.236 -0.805,0 -1.864,-0.06 -2.278,-0.06 -1.002,0 -2.217,0.081 -2.748,0.081 -0.06,-0.12 -0.08,-0.137 -0.08,-0.236 0,-0.098 0.02,-0.176 0.04,-0.235 0.571,-0.116 1.394,-0.257 1.552,-0.532 0.137,-0.253 0.177,-0.45 0.177,-0.763 0,-0.235 -0.018,-0.471 -0.119,-0.728 -0.176,-0.489 -0.549,-1.255 -1.079,-2.335 -0.904,-1.825 -1.473,-2.965 -1.788,-3.415 -0.509,0.861 -1.648,3.137 -1.921,3.728 l -1.102,2.395 c -0.038,0.077 -0.078,0.355 -0.078,0.531 0,0.253 0.04,0.433 0.078,0.51 0.178,0.352 0.787,0.391 1.611,0.493 0.038,0.094 0.058,0.214 0.058,0.291 0,0.138 -0.058,0.099 -0.117,0.197 l -0.353,0 c -1.316,0 -0.924,-0.059 -3.182,-0.059 -0.96,0 -2.12,0.059 -2.276,0.059 -0.079,-0.137 -0.119,-0.158 -0.119,-0.295 0,-0.077 0.02,-0.137 0.081,-0.236 1.313,-0.313 1.705,-0.548 1.844,-0.805 l 3.436,-6.732 c 0.333,-0.63 0.529,-1.118 0.628,-1.474 0.137,-0.548 0.159,-1.354 0.159,-2.353 0,-0.847 -0.296,-1.297 -0.631,-1.516 -0.136,-0.077 -1.12,-0.214 -1.57,-0.253 -0.079,-0.137 -0.101,-0.176 -0.101,-0.274 0,-0.098 0.042,-0.158 0.062,-0.236 1.001,0 2.042,0.021 2.631,0.021 0.412,0 1.04,-0.021 2.198,-0.042 0.667,-0.017 1.178,-0.039 1.531,-0.039 0.04,0.081 0.101,0.159 0.101,0.257 0,0.095 -0.022,0.155 -0.081,0.253 -0.629,0.078 -1.509,0.197 -1.707,0.394 -0.316,0.335 -0.47,0.489 -0.512,1.256 l -0.156,2.947 c -0.02,0.215 0.059,0.412 0.079,0.468 0.057,0.218 0.135,0.394 0.212,0.552 l 3.026,5.987 c 0.273,0.51 0.864,1.079 1.257,1.315 0.277,0.176 0.884,0.295 1.276,0.394 0.042,0.098 0.078,0.176 0.078,0.253"
           inkscape:connector-curvature="0" />
      </g>
    </g>
  </g>
</svg>
